<svg xmlns="http://www.w3.org/2000/svg" width="32.512" height="32.5" viewBox="0 0 32.512 32.5">
    <path fill="#27272f" d="M2.055 4.063h2.412l3.872 18.885a1.885 1.885 0 0 0 .682 1.016 1.745 1.745 0 0 0 1.1.413h17.357a1.787 1.787 0 0 0 1.127-.413 1.878 1.878 0 0 0 .682-1.016L32.4 10.982a2.784 2.784 0 0 0-.095-2 1.34 1.34 0 0 0-1.27-.857l-22.5-3.9L7.959 1.4a1.888 1.888 0 0 0-.683-.988A1.74 1.74 0 0 0 6.181 0H2.055A1.963 1.963 0 0 0 .611.587a1.944 1.944 0 0 0-.588 1.428 1.972 1.972 0 0 0 .6 1.444 1.947 1.947 0 0 0 1.428.6zm21.329 22.344a3.033 3.033 0 1 0 2.158.888 2.938 2.938 0 0 0-2.158-.888zm-10.157 0a3.046 3.046 0 1 0 2.158 5.2 3.046 3.046 0 0 0-2.158-5.2z" transform="translate(-.023)"/>
</svg>
