<svg xmlns="http://www.w3.org/2000/svg" width="20" height="19" viewBox="0 0 20 19">
    <g>
        <g fill="#959ba4">
            <path d="M17.77 5.6l-3.394-1.524h-.7l-3.041 1.366-3.046-1.366h-.042L7.445 4h-.509L3.543 5.527A.848.848 0 0 0 3 6.375v10.35a.845.845 0 0 0 1.2.772l3.046-1.366 3.041 1.369h.042a.721.721 0 0 0 .611 0h.042l3.046-1.366 3.046 1.366a.848.848 0 0 0 1.2-.772V6.375a.848.848 0 0 0-.5-.772zm-9.68.56l1.7.755V15.4l-1.7-.755zm8.484 9.247l-1.7-.755v-8.48l1.7.755z" transform="translate(-.393 .196) translate(-.403 -1.275)"/>
        </g>
    </g>
</svg>
