<svg xmlns="http://www.w3.org/2000/svg" width="26" height="26" viewBox="0 0 26 26">
    <g>
        <g fill="#444251">
            <path d="M22.685 12.228l-3.7-7.392A3.32 3.32 0 0 0 16.013 3H9.9a3.32 3.32 0 0 0-2.972 1.837l-3.7 7.392a2.213 2.213 0 0 0-.232 1V19.6a3.32 3.32 0 0 0 3.32 3.32H19.6a3.32 3.32 0 0 0 3.32-3.32v-6.376a2.213 2.213 0 0 0-.235-.996zM8.909 5.822a1.107 1.107 0 0 1 1-.609h6.108a1.107 1.107 0 0 1 1 .609l3.01 6.031h-2.642a1.107 1.107 0 0 0-1.107 1.107v3.32H9.639v-3.32a1.107 1.107 0 0 0-1.107-1.107H5.9zM19.6 20.7H6.32a1.107 1.107 0 0 1-1.107-1.1v-5.535h2.213v3.32a1.107 1.107 0 0 0 1.107 1.107h8.852a1.107 1.107 0 0 0 1.107-1.107v-3.32H20.7V19.6a1.107 1.107 0 0 1-1.1 1.1z" transform="translate(-.387 -.374) translate(.32 .32)"/>
        </g>
    </g>
</svg>
