<svg xmlns="http://www.w3.org/2000/svg" width="27" height="27" viewBox="0 0 27 27">
    <defs>
        <style>
            .cls-2{fill:#b2b6bb}
        </style>
    </defs>
    <g id="Layer_2" transform="translate(.085)">
        <g id="eye-off">
            <path id="Path_136" d="M4.893 3.321a1.111 1.111 0 0 0-1.572 1.572l6.23 6.23a3.873 3.873 0 0 0 5.249 5.244l6.23 6.23a1.111 1.111 0 1 0 1.57-1.571zm8.067 11.3a1.66 1.66 0 0 1-1.66-1.66v-.077l1.726 1.726z" class="cls-2" transform="translate(.319 .319)"/>
            <path id="Path_137" d="M13.309 17.973c-4.758.11-7.878-3.973-8.852-5.533a15.159 15.159 0 0 1 2.479-3.01L5.32 7.87a17.583 17.583 0 0 0-3.176 4.017 1.107 1.107 0 0 0 0 1.107c.7 1.206 4.426 7.192 10.944 7.192h.277a10.49 10.49 0 0 0 3.574-.741L15.19 17.7a8.565 8.565 0 0 1-1.881.277z" class="cls-2" transform="translate(.213 .838)"/>
            <path id="Path_138" d="M23.294 12.193C22.586 10.965 18.68 4.8 12.074 5a10.49 10.49 0 0 0-3.574.742l1.748 1.748a8.564 8.564 0 0 1 1.881-.277c4.747-.122 7.867 3.972 8.852 5.533a15.159 15.159 0 0 1-2.534 3.01l1.671 1.56a17.583 17.583 0 0 0 3.22-4.017 1.107 1.107 0 0 0-.044-1.107z" class="cls-2" transform="translate(.905 .532)"/>
        </g>
    </g>
</svg>
