<svg xmlns="http://www.w3.org/2000/svg" xmlns:xlink="http://www.w3.org/1999/xlink" width="189" height="189" viewBox="0 0 189 189">
  <defs>
    <filter id="Rectangle_3482" x="0" y="0" width="189" height="189" filterUnits="userSpaceOnUse">
      <feOffset dy="3" input="SourceAlpha"/>
      <feGaussianBlur stdDeviation="3" result="blur"/>
      <feFlood flood-opacity="0.161"/>
      <feComposite operator="in" in2="blur"/>
      <feComposite in="SourceGraphic"/>
    </filter>
  </defs>
  <g id="Group_37292" data-name="Group 37292" transform="translate(-180 -291)">
    <g transform="matrix(1, 0, 0, 1, 180, 291)" filter="url(#Rectangle_3482)">
      <rect id="Rectangle_3482-2" data-name="Rectangle 3482" width="171" height="171" rx="38" transform="translate(9 6)" fill="#fff"/>
    </g>
    <g id="Burger_King_logo" transform="translate(214.261 325.557)">
      <path id="path11" d="M26.272-73.44a1.426,1.426,0,0,0-.287-1.352s-4.507-7.621-20.364-9.342c-8.523-.9-20.077.819-28.19,5.2C-37.32-71.023-39.533-57.952-39.533-57.952a2.533,2.533,0,0,0,.123,1.721c.328.41.819.41,1.434.2,5.2-1.762,20.651-6.884,30.4-9.465,13.89-3.688,25.322-5.941,32.616-7.171.574-.123,1.024-.287,1.229-.778" transform="translate(63.79 90.444)" fill="#faaf18"/>
      <path id="path13" d="M7.319-20.652C-1-1.968-16.938,11.021-37.876,11.308c-15.2.2-28.641-5-38.352-14.1l-5.859,2.5v-9.1A52.966,52.966,0,0,1-92.208-41.3c0-31.755,24.3-56.749,58.224-56.749a64.664,64.664,0,0,1,14.3,1.721A58.284,58.284,0,0,0-37.712-99.2,60.332,60.332,0,0,0-98.6-39.255c0,33.148,26.019,60.929,60.15,60.929,32.615,0,50.193-22.987,55.848-36.836L7.319-20.652" transform="translate(98.6 99.2)" fill="#185494"/>
      <path id="path15" d="M119.054,32.538a16.6,16.6,0,0,0,9.916-4.261,7.736,7.736,0,0,0,2.049-5.532c.082-2.458,0-10.162,0-10.162l-12.661,2.745v2.95c.041,1.967.983,3.032,3.032,2.663.656-.123,1.639-.41,1.639-.41V22.95c0-.082.2,1.352-2.991,1.967-4.179.656-6.064-1.926-6.105-6.474.082-4.876,2.827-7.662,6.187-8.441a14.619,14.619,0,0,1,7.13.2c4.179.615,5.368-5.654,1.557-7.13a17.952,17.952,0,0,0-9.957-.656c-4.671.942-13.808,4.835-13.849,17.5-.041,10.08,7.375,13.358,14.054,12.62" transform="translate(-21.576 39.454)" fill="#ed1d21"/>
      <path id="path17" d="M38.8,50.208s3.893-1.352,4.22-1.434c3.114-1.065,4.261-2.95,4.261-6.146-.041-3.483-.041-10.285-.041-10.285L56.3,42.751a4.749,4.749,0,0,0,5,1.147,4.515,4.515,0,0,0,3.237-4.343V13.7s-2.336.492-4.261,1.024c-2.213.615-3.934,2.049-3.934,5.818v8.973s-5.163-6.433-8.482-9.752c-1.762-1.762-4.712-.7-4.712-.7L38.8,20.379V50.208" transform="translate(17.499 32.56)" fill="#ee1c23"/>
      <path id="path19" d="M18.465,31.6s-2.7.779-4.917,1.6C10.68,34.222,9,35.9,9,40.246V65.035s2.5-.86,4.876-1.762c3.319-1.27,4.589-2.991,4.589-6.474V31.6" transform="translate(35.088 21.994)" fill="#ed1c23"/>
      <path id="path21" d="M-32.969,45.358A4.319,4.319,0,0,0-38.5,46.874l-7.662,13.071V49.414l-9.1,3.729L-55.3,82.89l6.392-2.663A3.879,3.879,0,0,0-46.9,78.67a6.241,6.241,0,0,0,.656-2.909V66.337l7.13,7.58a5.02,5.02,0,0,0,6.966.41,4.611,4.611,0,0,0,.656-6.433l-6.474-6.515s5.7-9.014,6.638-10.489a3.737,3.737,0,0,0-1.639-5.532" transform="translate(73.042 14.137)" fill="#ee1d23"/>
      <path id="path23" d="M-9.616,101.917c-.328.778.451,1.557.451,1.557,3.278,4.138,17.906,9.383,33.8,5.532C48.9,103.146,54.017,85.978,54.591,83.56a1.962,1.962,0,0,0-.246-1.762c-.369-.41-.942-.41-1.68-.246C35.783,85.527,7.8,94.091-8.387,101.015c-.7.287-.983.41-1.229.9" transform="translate(46.124 -7.43)" fill="#faaf18"/>
      <path id="path25" d="M-57.586,15.534c-.041-1.639-1.311-2.54-3.483-1.434v5.286s.7-.328,1.229-.574a3.469,3.469,0,0,0,2.254-3.278m-3.524-4.794c.41-.164.7-.287,1.024-.451a3.421,3.421,0,0,0,2.049-3.073c0-1.6-1.311-2.008-3.073-1.106Zm9.342,4.015c.082,4.179-2.909,6.392-6.843,7.99l-7.99,3.4V4.471s5.04-2.049,6.679-2.663C-55.25.086-52.5,2.176-52.5,5.29A6.707,6.707,0,0,1-55.332,10.7,4.222,4.222,0,0,1-51.767,14.755Z" transform="translate(79.712 39.946)" fill="#ee1c23"/>
      <path id="path27" d="M-14.591-13.217c0-1.844-1.27-2.295-2.786-1.885-1.229.369-2.663.9-2.663.9V-.719c0,1.352-.2,3.032-1.885,3.442C-23.2,3.05-23.81,2.19-23.81.838V-10.185c0-1.844-1.27-2.377-2.786-1.885-1.721.574-2.7.983-2.7.983V2.272c-.041,4.466,3.073,6.72,7.744,5.327,4.138-1.229,6.925-3.565,6.966-9.506V-13.217" transform="translate(57.696 49.643)" fill="#ed1d1f"/>
      <path id="path29" d="M100.739-25.268a2.359,2.359,0,0,0,1.926-2.581v-2.336l-6.474,1.434v-3.811s3.2-.656,4.056-.86a1.913,1.913,0,0,0,1.68-2.131v-2.213l-5.736,1.229v-3.032l4.589-.942a2,2,0,0,0,1.68-2.295V-45.1c-2.868.492-8.318,1.6-11.719,2.377L90.7-22.974s6.474-1.516,10.039-2.295" transform="translate(-13.136 67.267)" fill="#ee1c23"/>
      <path id="path31" d="M15.809-13.654s3.2-1.68,3.2-4.3c-.041-2.254-2.09-1.762-3.155-1.352l-.041,5.654m.041,3.073v5.327A3.217,3.217,0,0,1,13.637-2.3h0C12.613-1.936,10.4-1.2,10.4-1.2V-21.562s4.548-1.6,7.211-2.213c4.1-.983,7.048.9,7.007,4.261a8.33,8.33,0,0,1-3.4,6.474l3.524,3.36a2.906,2.906,0,0,1-.041,4.1,2.948,2.948,0,0,1-4.138-.164C20.521-5.746,15.85-10.581,15.85-10.581Z" transform="translate(34.262 54.834)" fill="#ee1d23"/>
      <path id="path33" d="M128.127-39.264s3.155-1.188,3.114-3.729c-.041-2.131-2.131-1.762-3.155-1.516l.041,5.245M122.8-28.119v-19.5s5.7-1.024,7.171-1.188c4.1-.533,6.843,1.762,6.761,4.958a6.767,6.767,0,0,1-3.319,5.573s2.786,3.114,3.524,3.975a2.64,2.64,0,0,1-.533,3.974,2.819,2.819,0,0,1-3.729-.492l-4.548-5.409v4.753a2.709,2.709,0,0,1-2.335,2.786l-2.991.574Z" transform="translate(-32.083 69.503)" fill="#ee1d23"/>
      <path id="path35" d="M63.517-28.72l-8.072,1.844v2.254a1.427,1.427,0,0,0,1.8,1.516c.656-.123,1.188-.246,1.188-.246V-21.1c0,.9-1.311,1.475-2.7,1.434-1.967-.082-3.032-1.6-3.073-4.466.041-3.77,1.844-5.982,4.261-6.6a7.471,7.471,0,0,1,3.155-.041c2.09.328,3.278-.656,3.319-2.376.041-1.844-1.6-2.991-5.081-2.868C50.693-35.767,46.8-30.277,46.8-23.762c0,6.679,4.384,9.629,9.711,8.687a11.193,11.193,0,0,0,5.532-2.5,4.627,4.627,0,0,0,1.475-3.442v-7.7" transform="translate(12.777 61.909)" fill="#ee1d23"/>
      <path id="path37" d="M-12.124-71.5c-8.932,3.933-14.956,13.317-15.283,17.25-.123,1.557,1.967,1.8,2.172.123,1.885-7.211,7.621-14.013,13.112-17.373" transform="translate(56.581 82.85)" fill="#fff"/>
      <path id="path39" d="M64.587-70.406c4.794-1.188,7.457-1.352,7.5-3.524.082-3.606-10.162-7.785-19.586-7.007,9.588.656,15.324,4.343,15.324,6.884.041,1.639-1.393,3.073-3.237,3.647" transform="translate(9.412 88.475)" fill="#fff"/>
      <path id="path41" d="M89.2,111.859a33.117,33.117,0,0,0,17.988-16.39c1.106-2.336-2.09-3.565-2.991-.779a33.986,33.986,0,0,1-15,17.168" transform="translate(-12.25 -14.3)" fill="#fff"/>
      <path id="path43" d="M171.466,74.737h.983c.533,0,1.229.082,1.229.738,0,.738-.492.819-1.147.819h-1.024l-.041-1.557m-1.188,4.958h1.147V77.2h.737l1.434,2.5h1.229l-1.557-2.581c.86-.082,1.557-.492,1.557-1.557,0-1.27-.819-1.762-2.295-1.762h-2.254v5.9ZM167,76.745a5.411,5.411,0,1,0,5.409-5.245A5.247,5.247,0,0,0,167,76.745Zm1.434,0a3.978,3.978,0,1,1,3.974,4.138A3.943,3.943,0,0,1,168.434,76.745Z" transform="translate(-58.172 -1.557)" fill="#ee1d23"/>
    </g>
  </g>
</svg>
