<svg xmlns="http://www.w3.org/2000/svg" width="14.619" height="31.12" viewBox="0 0 14.619 31.12">
  <g id="pin_5_" data-name="pin (5)" transform="translate(0)">
    <path id="Path_39214" data-name="Path 39214" d="M215.017,215.206v14.912l1.271,1.907V215.206Z" transform="translate(-208.979 -200.905)" fill="#e1e6e9"/>
    <path id="Path_39215" data-name="Path 39215" d="M234.146,215.206v16.819l1.271-1.907V215.206Z" transform="translate(-226.836 -200.905)" fill="#d5d6db"/>
    <path id="Path_39216" data-name="Path 39216" d="M138.772,7.31a7.31,7.31,0,0,1-14.368,1.9,7.221,7.221,0,0,1-.251-1.9,7.31,7.31,0,0,1,14.619,0Z" transform="translate(-124.153 0)" fill="#e71c93"/>
    <path id="Path_39217" data-name="Path 39217" d="M137.335,4.541A7.31,7.31,0,0,1,124.4,9.213a7.22,7.22,0,0,1-.251-1.9,7.308,7.308,0,0,1,12.932-4.669A7.217,7.217,0,0,1,137.335,4.541Z" transform="translate(-124.152 0)" fill="#f647ae"/>
    <path id="Path_39218" data-name="Path 39218" d="M168.581,33.9a1.062,1.062,0,0,0-.876-1.12,4.832,4.832,0,0,0-5.794,2.915s-.336.873.63.764a1.778,1.778,0,0,0,1.174-.674,3.492,3.492,0,0,1,3.7-1.1.952.952,0,0,0,1.141-.654A.985.985,0,0,0,168.581,33.9Z" transform="translate(-159.349 -30.484)" fill="#e1e6e9"/>
  </g>
</svg>
