<svg xmlns="http://www.w3.org/2000/svg" width="26" height="27" viewBox="0 0 26 27">
    <defs>
        <style>
            .cls-2{fill:#444251}
        </style>
    </defs>
    <g id="unlock" transform="translate(-.387)">
        <path id="Path_134" d="M18.385 8.639h-7.746V6.426a2.213 2.213 0 1 1 4.426 0 1.107 1.107 0 0 0 2.213 0 4.426 4.426 0 0 0-8.852 0v2.213H7.32A3.32 3.32 0 0 0 4 11.959v8.852a3.32 3.32 0 0 0 3.32 3.32h11.065a3.32 3.32 0 0 0 3.32-3.32v-8.852a3.32 3.32 0 0 0-3.32-3.32zm1.107 12.172a1.107 1.107 0 0 1-1.107 1.107H7.32a1.107 1.107 0 0 1-1.107-1.107v-8.852a1.107 1.107 0 0 1 1.107-1.107h11.065a1.107 1.107 0 0 1 1.107 1.107z" class="cls-2" transform="translate(.426 .213)"/>
        <path id="Path_135" d="M12.32 12a3.32 3.32 0 1 0 3.32 3.32A3.32 3.32 0 0 0 12.32 12zm0 4.426a1.107 1.107 0 1 1 1.107-1.107 1.107 1.107 0 0 1-1.107 1.107z" class="cls-2" transform="translate(.959 1.278)"/>
    </g>
</svg>
