<svg xmlns="http://www.w3.org/2000/svg" width="76" height="78" viewBox="0 0 76 78">
  <g id="Group_30" data-name="Group 30" transform="translate(-0.441 0.264)">
    <g id="Group_29" data-name="Group 29" transform="translate(0.441 -0.264)">
      <rect id="Rectangle_2" data-name="Rectangle 2" width="76" height="78" rx="15" transform="translate(0)" fill="#ea1f97"/>
      <g id="Group_4" data-name="Group 4" transform="translate(15.836 19.715)">
        <path id="Path_4" data-name="Path 4" d="M1191.746,545.644h-34.229a1.52,1.52,0,0,1-.136-3.033c.045,0,.091,0,.136-.006h34.24c.167,0,.334.009.5.026a5,5,0,0,1,4.427,5.77,6.057,6.057,0,0,1-.268,1.022,7.468,7.468,0,0,1-6.271,4.97c-.259.027-.519.039-.779.041h-10.875c-.279,1.049-.558,2.1-.845,3.144-.074.26-.158.516-.258.767a7.721,7.721,0,0,1-6.692,4.862,6.259,6.259,0,0,1-.937,0,5.171,5.171,0,0,1-4.667-5.9,5.47,5.47,0,0,1,.12-.581l1.123-4.193c.007-.028.016-.055.024-.082s.013-.039.024-.067v0l0-.011,0-.007c.017-.043.036-.085.056-.126l.019-.036,0-.007.008-.014,0-.006v0l0-.006,0,0,.006-.009,0-.007,0-.007.006-.009,0,0,0-.007a1.515,1.515,0,0,1,.676-.586l.007,0h0a1.5,1.5,0,0,1,.213-.075c.031-.008.062-.015.093-.022h0l.013,0h.014l.014,0a1.239,1.239,0,0,1,.129-.016l.049,0,.063,0h.017c3.109,0,17.642.021,21.6,0,.155,0,.31-.011.464-.029a4.436,4.436,0,0,0,3.213-2,4.451,4.451,0,0,0,.551-1.237l0,.009.015-.055a2,2,0,0,0,.048-.7,1.958,1.958,0,0,0-1.72-1.728,2.18,2.18,0,0,0-.232-.013Zm-16.4,8.789h-6.374c-.279,1.031-.559,2.063-.828,3.1a2.169,2.169,0,0,0-.052.758,2.132,2.132,0,0,0,1.964,1.89,3.238,3.238,0,0,0,.4,0,4.681,4.681,0,0,0,4.141-3.041c.052-.14.1-.283.136-.427l.61-2.275Zm-3.94-20.617.029-.079a13.371,13.371,0,0,1,11.2-8.644c.42-.042.841-.062,1.263-.066,4.293-.011,8.587-.031,12.88,0a5.283,5.283,0,0,1,.576.042,5,5,0,0,1,4.272,5.824,6.286,6.286,0,0,1-.282,1.025,7.469,7.469,0,0,1-6.245,4.9c-.259.027-.518.039-.779.041h-34.569a1.56,1.56,0,0,1-.271-.024,1.52,1.52,0,0,1-.728-2.639,1.517,1.517,0,0,1,.863-.369c.046,0,.091,0,.136-.006Zm3.34,0s18.7,0,19.621,0l.14,0c.154-.007.308-.021.461-.043a4.429,4.429,0,0,0,3.627-3.218l0,.008.014-.055a2,2,0,0,0,.048-.7,1.959,1.959,0,0,0-1.207-1.6,1.994,1.994,0,0,0-.711-.145q-6.437-.047-12.875,0c-.326,0-.652.022-.976.056a10.345,10.345,0,0,0-7.825,5.037c-.125.213-.243.431-.353.653l0,0Z" transform="translate(-1155.998 -525.01)" fill="#fff" fill-rule="evenodd"/>
        <path id="Path_5" data-name="Path 5" d="M1266.609,691.327l-.4,1.515h-3.15l.406-1.515Z" transform="translate(-1244.117 -661.904)" fill="#ccc" fill-rule="evenodd"/>
      </g>
    </g>
  </g>
</svg>
