<svg xmlns="http://www.w3.org/2000/svg" width="33.432" height="35.068" viewBox="0 0 33.432 35.068">
  <g id="national-flag" transform="translate(8.38) rotate(17)">
    <g id="Group_37201" data-name="Group 37201" transform="translate(0 0)">
      <g id="Icons_1_">
        <path id="Path_39149" data-name="Path 39149" d="M26.153,11.1,22.835.665a.952.952,0,0,0-1.06-.652L16.713.838a7.105,7.105,0,0,0-2.977,1.228L11.4,3.734A5.168,5.168,0,0,1,8.5,4.7l-4.074.092a2.26,2.26,0,0,0-2.85-2.806,2.253,2.253,0,0,0-.15,4.247L8.24,27.664a1.429,1.429,0,0,0,1.362,1,1.38,1.38,0,0,0,.433-.068,1.429,1.429,0,0,0,.93-1.795L7.892,17.132l3.97-.09a7.048,7.048,0,0,0,3.963-1.318l2.335-1.669a5.22,5.22,0,0,1,2.177-.9l5.061-.826a.958.958,0,0,0,.756-1.228ZM11.819,15.139l-4.157.094L4.945,6.685l3.6-.08a7,7,0,0,0,1.609-.241l2.741,8.626A5.188,5.188,0,0,1,11.819,15.139Zm2.9-.965a5.189,5.189,0,0,1-.921.511L11.057,6.064a7.135,7.135,0,0,0,1.449-.778l2.337-1.669c.116-.083.239-.155.362-.228l2.73,8.592a7.106,7.106,0,0,0-.883.527Zm5.312-2.9a7.049,7.049,0,0,0-1.214.324L16.074,2.976a5.156,5.156,0,0,1,.947-.258l4.248-.694L24,10.627Z" fill="#444251"/>
      </g>
    </g>
  </g>
</svg>
