<svg xmlns="http://www.w3.org/2000/svg" width="50" height="49" viewBox="0 0 50 49">
    <defs>
        <style>
            .cls-1{fill:#fff}.cls-2{fill:#faaf18}.cls-5{fill:#ee1c23}.cls-7{fill:#ee1d23}
        </style>
    </defs>
    <g id="Group_4192" transform="translate(.425 -.305)">
        <rect id="Rectangle_654" width="50" height="49" class="cls-1" rx="18" transform="translate(-.425 .305)"/>
        <g id="Burger_King_logo" transform="translate(8.228 8.228)">
            <path id="path11" d="M-22.126-81.465a.379.379 0 0 0-.076-.359s-1.2-2.024-5.408-2.481a14.057 14.057 0 0 0-7.49 1.382 8.555 8.555 0 0 0-4.5 5.571.673.673 0 0 0 .033.457c.087.109.218.109.381.054 1.382-.468 5.484-1.828 8.074-2.514 3.689-.979 6.724-1.578 8.661-1.9.152-.033.272-.076.326-.207" class="cls-2" transform="translate(46.042 85.981)"/>
            <path id="path13" fill="#185494" d="M-70.473-78.341c-2.209 4.962-6.442 8.411-12 8.487A14.423 14.423 0 0 1-92.659-73.6l-1.556.664v-2.416a14.065 14.065 0 0 1-2.685-8.473c0-8.433 6.452-15.07 15.462-15.07a17.172 17.172 0 0 1 3.8.457 15.477 15.477 0 0 0-4.788-.762A16.021 16.021 0 0 0-98.6-83.281 16.007 16.007 0 0 0-82.627-67.1 15.97 15.97 0 0 0-67.8-76.883l-2.677-1.458" transform="translate(98.6 99.2)"/>
            <path id="path15" fill="#ed1d21" d="M108.732 10.125a4.407 4.407 0 0 0 2.633-1.132 2.054 2.054 0 0 0 .544-1.469c.022-.653 0-2.7 0-2.7l-3.362.729v.783c.011.522.261.805.805.707.174-.033.435-.109.435-.109v.642c0-.022.054.359-.794.522-1.11.174-1.61-.511-1.621-1.719a2.152 2.152 0 0 1 1.643-2.241 3.882 3.882 0 0 1 1.893.054c1.11.163 1.425-1.5.413-1.893a4.767 4.767 0 0 0-2.644-.174A4.448 4.448 0 0 0 105 6.773a3.131 3.131 0 0 0 3.732 3.351" transform="translate(-82.846 8.993)"/>
            <path id="path17" d="M38.8 23.395s1.034-.359 1.121-.381a1.5 1.5 0 0 0 1.132-1.632c-.011-.925-.011-2.731-.011-2.731l2.4 2.764a1.261 1.261 0 0 0 1.327.3 1.2 1.2 0 0 0 .86-1.153V13.7s-.62.131-1.132.272a1.373 1.373 0 0 0-1.045 1.545V17.9s-1.371-1.708-2.252-2.59a1.307 1.307 0 0 0-1.251-.185l-1.153.348v7.921" class="cls-5" transform="translate(-23.85 -1.415)"/>
            <path id="path19" fill="#ed1c23" d="M11.514 31.6s-.718.207-1.306.424A1.676 1.676 0 0 0 9 33.9v6.583s.664-.229 1.295-.468a1.6 1.6 0 0 0 1.219-1.719V31.6" transform="translate(2.708 -17.368)"/>
            <path id="path21" d="M-49.37 45.03a1.147 1.147 0 0 0-1.469.4l-2.035 3.47v-2.8l-2.416.99-.01 7.91 1.7-.707a1.03 1.03 0 0 0 .533-.413 1.657 1.657 0 0 0 .167-.78v-2.5l1.9 2.014a1.333 1.333 0 0 0 1.85.109 1.225 1.225 0 0 0 .174-1.708l-1.719-1.73s1.512-2.394 1.763-2.786a.992.992 0 0 0-.435-1.469" class="cls-7" transform="translate(60.011 -29.231)"/>
            <path id="path23" d="M-9.675 86.885c-.087.207.12.413.12.413.87 1.1 4.755 2.492 8.977 1.469 6.442-1.556 7.8-6.115 7.954-6.757a.521.521 0 0 0-.065-.468c-.1-.109-.25-.109-.446-.065a120.406 120.406 0 0 0-16.214 5.169c-.185.076-.261.109-.326.239" class="cls-2" transform="translate(19.37 -61.794)"/>
            <path id="path25" d="M-64.206 5c-.011-.435-.348-.675-.925-.381v1.4l.326-.152a.921.921 0 0 0 .6-.87m-.936-1.273c.109-.044.185-.076.272-.12a.908.908 0 0 0 .544-.816c0-.424-.348-.533-.816-.294zm2.481 1.066c.022 1.11-.773 1.7-1.817 2.122l-2.122.9V2.059s1.338-.544 1.774-.707c1.24-.457 1.969.1 1.969.925a1.781 1.781 0 0 1-.751 1.436 1.121 1.121 0 0 1 .946 1.077z" class="cls-5" transform="translate(70.082 9.736)"/>
            <path id="path27" fill="#ed1d1f" d="M-25.395-14.7c0-.49-.337-.609-.74-.5-.326.1-.707.239-.707.239v3.58c0 .359-.054.805-.5.914-.337.087-.5-.141-.5-.5V-13.9c0-.49-.337-.631-.74-.5-.457.152-.718.261-.718.261v3.547c-.011 1.186.816 1.784 2.056 1.415a2.31 2.31 0 0 0 1.85-2.524v-3" transform="translate(36.841 24.377)"/>
            <path id="path29" d="M93.366-39.834a.626.626 0 0 0 .511-.685v-.62l-1.719.381v-1.012s.849-.174 1.077-.229a.508.508 0 0 0 .446-.566v-.588l-1.523.326v-.805l1.219-.25a.531.531 0 0 0 .446-.609v-.609c-.762.131-2.209.424-3.112.631l-.011 5.245s1.719-.4 2.666-.609" class="cls-5" transform="translate(-70.102 50.987)"/>
            <path id="path31" d="M11.836-21.279s.849-.446.849-1.142c-.011-.6-.555-.468-.838-.359l-.011 1.5m.011.816v1.415a.854.854 0 0 1-.588.783c-.272.1-.86.294-.86.294v-5.408s1.208-.424 1.915-.588c1.088-.261 1.872.239 1.861 1.132a2.212 2.212 0 0 1-.9 1.719l.936.892a.772.772 0 0 1-.011 1.088.783.783 0 0 1-1.1-.044c-.012.002-1.253-1.282-1.253-1.282z" class="cls-7" transform="translate(1.46 32.214)"/>
            <path id="path33" d="M124.215-46.332s.838-.316.827-.99c-.011-.566-.566-.468-.838-.4l.011 1.393m-1.415 2.96v-5.179s1.512-.272 1.9-.316c1.088-.141 1.817.468 1.8 1.317a1.8 1.8 0 0 1-.881 1.48s.74.827.936 1.055a.7.7 0 0 1-.141 1.055.748.748 0 0 1-.99-.131l-1.208-1.436v1.262a.719.719 0 0 1-.62.74l-.794.152z" class="cls-7" transform="translate(-98.71 54.362)"/>
            <path id="path35" d="M51.239-34.083l-2.144.49v.6a.379.379 0 0 0 .479.4c.174-.033.316-.065.316-.065v.6c0 .239-.348.392-.718.381-.522-.022-.805-.424-.816-1.186a1.638 1.638 0 0 1 1.132-1.752 1.984 1.984 0 0 1 .838-.011c.555.087.87-.174.881-.631.011-.49-.424-.794-1.349-.762a3.03 3.03 0 0 0-3.058 3.253 2.084 2.084 0 0 0 2.579 2.307 2.972 2.972 0 0 0 1.469-.664 1.229 1.229 0 0 0 .392-.914v-2.046" class="cls-7" transform="translate(-30.979 42.896)"/>
            <path id="path37" d="M-23.353-71.5c-2.372 1.045-3.972 3.536-4.059 4.581-.033.413.522.479.577.033a8.319 8.319 0 0 1 3.482-4.614" class="cls-1" transform="translate(35.159 74.514)"/>
            <path id="path39" d="M55.71-78.209c1.273-.316 1.98-.359 1.991-.936.022-.958-2.7-2.067-5.2-1.861 2.546.174 4.069 1.153 4.069 1.828a1.1 1.1 0 0 1-.86.968" class="cls-1" transform="translate(-36.059 83.008)"/>
            <path id="path41" d="M89.2 98.073a8.794 8.794 0 0 0 4.777-4.352c.294-.62-.555-.947-.794-.207a9.025 9.025 0 0 1-3.983 4.559" class="cls-1" transform="translate(-68.766 -72.166)"/>
            <path id="path43" d="M168.186 72.36h.261c.141 0 .326.022.326.2 0 .2-.131.218-.3.218h-.273l-.011-.413m-.316 1.317h.3v-.664h.2l.381.664h.326l-.413-.686c.228-.022.413-.131.413-.413 0-.337-.218-.468-.609-.468h-.6v1.567zm-.87-.783a1.437 1.437 0 1 0 1.436-1.393A1.393 1.393 0 0 0 167 72.893zm.381 0a1.056 1.056 0 1 1 1.055 1.1 1.047 1.047 0 0 1-1.058-1.106z" class="cls-7" transform="translate(-138.1 -52.926)"/>
        </g>
    </g>
</svg>
