<svg xmlns="http://www.w3.org/2000/svg" width="18.612" height="18.612" viewBox="0 0 18.612 18.612">
  <g id="refresh_3_" data-name="refresh (3)" transform="translate(0)">
    <g id="Group_37176" data-name="Group 37176" transform="translate(1.026)">
      <g id="Group_37175" data-name="Group 37175">
        <path id="Path_39137" data-name="Path 39137" d="M45.162,2.567a.727.727,0,0,0-.79.658l-.1,1.057a9.177,9.177,0,0,0-15.959.765.727.727,0,1,0,1.295.661,7.729,7.729,0,0,1,13.447-.641l-1.037-.74a.727.727,0,0,0-.845,1.183L44.32,7.756a.728.728,0,0,0,1.147-.526l.353-3.873A.727.727,0,0,0,45.162,2.567Z" transform="translate(-28.237)" fill="#fafafa"/>
      </g>
    </g>
    <g id="Group_37178" data-name="Group 37178" transform="translate(0 10.721)">
      <g id="Group_37177" data-name="Group 37177">
        <path id="Path_39138" data-name="Path 39138" d="M17.19,296.778a.727.727,0,0,0-.978.317,7.729,7.729,0,0,1-13.447.641l1.037.74a.727.727,0,1,0,.845-1.183L1.5,295.048a.728.728,0,0,0-1.147.526L0,299.447a.727.727,0,0,0,1.448.132l.1-1.057a9.177,9.177,0,0,0,15.958-.765A.727.727,0,0,0,17.19,296.778Z" transform="translate(-0.001 -294.913)" fill="#fafafa"/>
      </g>
    </g>
  </g>
</svg>
