<svg xmlns="http://www.w3.org/2000/svg" id="Group_74" width="381.516" height="202" viewBox="0 0 381.516 202">
    <defs>
        <style>
            .cls-1{fill:#a3c4dc}.cls-2{fill:#f068b8}.cls-3{fill:#0a2e41}.cls-4{fill:#e81d94}.cls-6{fill:#f3f3f3}.cls-7{fill:#821b31}.cls-8{fill:#df6b49}.cls-9{fill:#fff}.cls-10{fill:#fafafa;fill-rule:evenodd}
        </style>
    </defs>
    <g id="Group_50">
        <path id="Path_139" d="M63.419 196.259h-.39v-.889h.387c.751 0 1.515-.009 2.267-.031l.028.889c-.761.022-1.531.031-2.292.031zm-3.074-.059c-.892-.034-1.793-.087-2.678-.153l.065-.885c.876.065 1.768.115 2.65.15zm8.047-.1l-.053-.889c.876-.053 1.768-.125 2.644-.212l.087.889c-.889.088-1.79.159-2.678.212zm-13.4-.3c-.885-.094-1.783-.212-2.662-.34l.128-.879c.87.128 1.755.24 2.634.337zm18.743-.218l-.118-.882c.879-.115 1.761-.246 2.625-.393l.15.876c-.877.147-1.768.281-2.657.4zm-24.056-.558c-.876-.162-1.761-.34-2.628-.533l.19-.867c.857.19 1.733.368 2.6.524zm29.349-.34l-.181-.867c.6-.128 1.2-.262 1.789-.4.259-.062.524-.131.786-.2l.224.86c-.265.069-.533.137-.8.2-.598.146-1.209.283-1.817.408zm-34.587-.823c-.867-.228-1.733-.471-2.585-.73l.259-.851c.839.253 1.7.5 2.55.72zm39.79-.514l-.256-.851c.854-.256 1.7-.533 2.522-.817l.29.842c-.828.287-1.687.568-2.555.826zM39.3 192.306c-.845-.293-1.693-.6-2.519-.929l.321-.826c.817.318 1.652.624 2.488.913zm50.007-.723l-.327-.826c.826-.33 1.646-.68 2.432-1.038l.368.807c-.798.368-1.631.72-2.472 1.057zM34.3 190.354c-.817-.355-1.64-.733-2.441-1.119l.387-.8c.792.383 1.6.754 2.41 1.1zm59.9-1.01l-.412-.786c.789-.412 1.565-.845 2.3-1.291l.455.764c-.751.453-1.543.896-2.343 1.313zm-64.737-1.325c-.786-.418-1.574-.857-2.344-1.306l.449-.77c.761.446 1.54.879 2.313 1.291zm69.355-1.443l-.5-.733c.726-.5 1.44-1.029 2.12-1.568l.552.7c-.696.547-1.428 1.086-2.174 1.601zm-73.991-1.263c-.751-.477-1.506-.976-2.235-1.487l.505-.73c.723.5 1.468.995 2.207 1.468zm78.215-2.089l-.6-.658c.648-.6 1.278-1.216 1.874-1.852l.648.611c-.611.649-1.264 1.288-1.923 1.899zm-82.63-.966c-.711-.536-1.422-1.091-2.117-1.652l.564-.689c.68.552 1.384 1.1 2.086 1.631zm86.321-2.974l-.7-.555c.546-.683 1.072-1.4 1.559-2.117l.739.5c-.498.741-1.038 1.47-1.599 2.172zm-90.489-.405c-.667-.586-1.337-1.191-1.989-1.805l.608-.648c.645.608 1.306 1.207 1.964 1.783zm93.519-4.059l-.773-.44c.427-.754.836-1.543 1.207-2.338l.807.38c-.384.814-.804 1.621-1.242 2.397zm2.295-4.882l-.832-.318c.312-.811.6-1.649.854-2.491l.848.256c-.26.862-.553 1.723-.871 2.552zm1.565-5.157l-.867-.2c.193-.842.368-1.712.514-2.588l.876.147c-.146.892-.324 1.78-.524 2.641zm86.692-3.775h-.078v-.892h.078c.851 0 1.718-.016 2.575-.05l.031.892c-.864.03-1.744.049-2.607.049zm-2.765-.056c-.9-.041-1.8-.1-2.681-.175l.075-.885c.864.075 1.755.131 2.644.168zm8.056-.153l-.072-.885c.882-.072 1.768-.159 2.641-.262l.1.882c-.881.105-1.782.193-2.675.268zm-13.412-.309c-.9-.115-1.793-.256-2.656-.415l.156-.873c.854.153 1.733.29 2.616.405zm18.749-.33l-.143-.879c.876-.14 1.752-.3 2.606-.477l.178.873c-.865.177-1.757.339-2.642.482zm-24.043-.633c-.889-.212-1.765-.446-2.6-.7l.256-.854c.823.249 1.68.48 2.55.686zm-72.385-.056l-.885-.094.028-.265c.069-.773.122-1.574.162-2.373l.885.044c-.037.807-.094 1.621-.162 2.413zm101.691-.4l-.218-.86c.864-.221 1.724-.458 2.55-.714l.259.851c-.841.262-1.717.505-2.597.726zm-34.465-1.113c-.864-.324-1.7-.68-2.488-1.051l.377-.807c.77.365 1.584.708 2.426 1.026zm39.613-.465l-.306-.836c.842-.309 1.665-.636 2.45-.982l.355.817c-.802.353-1.647.69-2.501 1.005zm-44.5-1.855a23.25 23.25 0 0 1-2.254-1.512l.536-.708a22.5 22.5 0 0 0 2.173 1.453zm49.436-.306l-.408-.789c.795-.412 1.565-.851 2.288-1.3l.471.758c-.741.462-1.534.914-2.351 1.335zm-111.517-1.241h-.889v-.277c0-.776-.016-1.574-.044-2.369l.892-.031c.025.807.041 1.615.041 2.4zm116.1-1.631l-.536-.708a22.419 22.419 0 0 0 2-1.693l.614.645a24.173 24.173 0 0 1-2.081 1.761zm-58.334-.122a17.555 17.555 0 0 1-1.409-1.584c-.131-.181-.246-.343-.362-.508l.733-.508.34.48a16.168 16.168 0 0 0 1.328 1.493zM113.7 148.8c-.062-.86-.137-1.749-.234-2.641l.885-.09c.094.9.171 1.8.237 2.666zm121.092-.094l-.692-.558a17.452 17.452 0 0 0 1.475-2.139l.767.446a17.341 17.341 0 0 1-1.55 2.254zm-65.464-.761a25.926 25.926 0 0 1-1.191-2.441l.82-.343a24.756 24.756 0 0 0 1.147 2.351zm68.276-3.885l-.8-.374c.349-.764.68-1.584.976-2.435l.842.293c-.314.88-.65 1.728-1.022 2.52zm91.159-.418c-.2 0-.405 0-.608-.006l.019-.889c.2 0 .4.006.608.006.667 0 1.35-.025 2.02-.069l.062.885c-.698.052-1.403.08-2.101.077zm-215.612-.112c-.115-.854-.246-1.737-.39-2.622l.876-.143c.147.895.277 1.783.4 2.647zm212.307-.065c-.882-.1-1.78-.231-2.665-.4l.165-.876c.864.168 1.737.3 2.594.393zm8.093-.193l-.137-.879c.854-.134 1.724-.306 2.578-.514l.209.867c-.878.214-1.77.392-2.649.529zm-166.328-.327a23.56 23.56 0 0 1-.608-2.647l.876-.15a21.841 21.841 0 0 0 .589 2.547zm152.941-.5c-.851-.237-1.718-.511-2.575-.814l.3-.839c.839.3 1.687.564 2.513.795zm18.637-.443l-.277-.845c.82-.271 1.652-.577 2.475-.913l.334.823c-.841.35-1.692.665-2.533.939zm-23.722-1.362c-.8-.346-1.624-.73-2.438-1.141l.4-.8c.8.4 1.6.779 2.391 1.119zm28.71-.7l-.4-.8c.767-.383 1.556-.8 2.338-1.241l.44.776c-.793.46-1.594.884-2.377 1.271zm-104.389-.983l-.861-.221c.215-.823.408-1.69.577-2.575l.873.165c-.175.907-.374 1.79-.589 2.631zm-127.1-.657c-.159-.836-.33-1.712-.518-2.6l.87-.181c.187.9.365 1.78.521 2.622zm197.969-.075c-.758-.43-1.531-.9-2.3-1.387l.474-.751c.758.483 1.521.942 2.27 1.369zm-143.953-.625c-.022-.427-.034-.864-.034-1.294 0-.471.016-.948.041-1.419l.889.05c-.025.455-.041.917-.041 1.369 0 .415.012.832.034 1.247zm182.169-.284l-.471-.754c.73-.458 1.478-.945 2.22-1.45l.5.736c-.752.509-1.51 1.005-2.249 1.466zm-42.755-1.966c-.714-.5-1.447-1.023-2.176-1.568l.53-.711c.723.536 1.45 1.06 2.154 1.549zm47.2-1.057l-.527-.717c.7-.514 1.412-1.057 2.114-1.606l.549.7c-.71.554-1.43 1.103-2.138 1.623zm-112.512-.624l-.882-.122c.115-.848.209-1.733.287-2.631l.889.078c-.084.911-.181 1.812-.296 2.676zm-129.197-.569c-.193-.832-.4-1.7-.614-2.585l.864-.212c.218.889.424 1.761.614 2.6zm56.27-.77l-.876-.14c.137-.873.324-1.765.552-2.65l.86.221c-.218.863-.401 1.726-.536 2.571zm133.936-.187c-.68-.539-1.375-1.11-2.076-1.7l.574-.683c.689.583 1.384 1.147 2.058 1.684zm55.718-1.172l-.571-.68c.667-.561 1.341-1.144 2.008-1.74l.592.664c-.674.605-1.355 1.194-2.028 1.758zm-59.83-2.273c-.645-.564-1.316-1.166-2-1.786l.6-.658c.673.617 1.341 1.213 1.983 1.777zm-56.432-.387l-.889-.041c.041-.854.065-1.746.075-2.65l.892.006c-.012.92-.037 1.821-.078 2.688zm-130.925-.374q-.332-1.291-.683-2.575l.864-.231c.231.86.455 1.721.683 2.581zm251.193-.533l-.608-.648c.639-.6 1.281-1.222 1.908-1.846l.63.63c-.635.632-1.281 1.26-1.929 1.866zm-192.364-.159l-.839-.293c.287-.829.617-1.677.982-2.516l.817.352c-.354.823-.678 1.649-.959 2.459zM293.35 125.1q-.973-.917-1.936-1.843l.617-.639c.639.611 1.281 1.225 1.93 1.833zm71.609-1.472l-.642-.611c.608-.639 1.219-1.294 1.808-1.949l.661.6c-.599.654-1.213 1.315-1.827 1.957zm-124.9-.658c-.016-.864-.047-1.758-.09-2.656l.889-.041c.044.9.075 1.805.09 2.678zm-131.484-.17q-.355-1.286-.723-2.566l.857-.243q.365 1.281.72 2.569zm62.3-.39l-.789-.408c.4-.779.845-1.571 1.309-2.354l.764.455c-.452.766-.886 1.542-1.282 2.306zM289.5 121.4c-.639-.627-1.272-1.25-1.9-1.877l.627-.633q.945.935 1.9 1.871zm79.06-1.736l-.673-.583c.574-.667 1.15-1.35 1.705-2.033l.689.564c-.565.682-1.145 1.374-1.725 2.047zm-194.979-1.793l-.736-.5c.489-.733 1.013-1.472 1.556-2.2l.714.533c-.537.716-1.052 1.442-1.538 2.163zm-66.461-.2q-.369-1.286-.742-2.566l.854-.246c.249.854.5 1.708.745 2.566zm132.7-.016c-.059-.864-.131-1.758-.212-2.653l.885-.081c.084.9.156 1.8.218 2.672zm45.879-.016l-1.892-1.883.627-.63 1.892 1.88zm86.255-2.126l-.7-.546c.542-.7 1.082-1.419 1.6-2.123l.717.527c-.525.711-1.071 1.429-1.623 2.142zm-90.054-1.631q-.963-.94-1.911-1.858l.617-.639q.954.917 1.917 1.864zm-105.158-.259l-.686-.564c.561-.683 1.15-1.369 1.749-2.039l.664.6c-.593.654-1.169 1.33-1.724 2.003zm-71.113-1.085q-.374-1.281-.739-2.569l.857-.243c.243.854.489 1.712.736 2.566zm133.7-.184c-.1-.87-.2-1.758-.318-2.644l.882-.115c.115.892.221 1.786.321 2.659zm135.8-1.166l-.729-.508c.508-.73 1.01-1.475 1.493-2.207l.742.486c-.484.741-.989 1.491-1.503 2.23zm-97.07-1l-.8-.745c-.383-.359-.767-.708-1.157-1.054l.6-.664c.393.352.783.7 1.166 1.066.268.246.533.5.8.748zm-97.781-.511l-.636-.617c.617-.636 1.26-1.272 1.911-1.892l.611.645c-.64.61-1.276 1.237-1.884 1.864zm-76.109-2.277c-.24-.864-.48-1.721-.711-2.581l.86-.234c.231.857.465 1.718.7 2.575zm134.479-.324q-.2-1.319-.405-2.628l.879-.143c.143.876.277 1.758.408 2.644zm139.43-.377l-.758-.468c.468-.758.929-1.525 1.359-2.282l.776.446c-.442.758-.903 1.534-1.377 2.305zm-103.978-.043c-.68-.567-1.378-1.129-2.067-1.665l.546-.7c.7.542 1.4 1.11 2.089 1.68zm-89.978-.639l-.586-.667c.664-.589 1.353-1.175 2.045-1.743l.564.689c-.68.561-1.363 1.137-2.021 1.72zm85.791-2.613c-.72-.518-1.453-1.029-2.179-1.515l.5-.739c.736.493 1.475 1.007 2.2 1.531zm-81.685-.754l-.539-.708c.711-.542 1.44-1.076 2.167-1.587l.511.726c-.715.505-1.436 1.032-2.137 1.568zm-85.457-.424q-.341-1.3-.655-2.6l.86-.212q.318 1.291.655 2.588zm277.983-.178l-.782-.421c.418-.783.829-1.578 1.216-2.36l.8.393c-.394.791-.808 1.596-1.232 2.388zm-142.954-.231c-.156-.879-.318-1.752-.48-2.619l.873-.165q.248 1.3.48 2.628zm27.706-1.362c-.751-.465-1.518-.92-2.282-1.353l.443-.773c.773.44 1.549.9 2.307 1.372zm-72.94-.86l-.483-.745c.754-.493 1.521-.97 2.282-1.419l.455.764c-.748.445-1.508.916-2.253 1.399zm68.334-1.769c-.779-.405-1.577-.807-2.373-1.185l.384-.8c.8.383 1.612.789 2.4 1.2zm122.233-.592l-.814-.368c.371-.811.72-1.631 1.047-2.435l.826.334c-.328.817-.692 1.646-1.058 2.469zm-281.64-.215c-.2-.885-.4-1.765-.571-2.616l.87-.184c.178.848.368 1.721.571 2.6zm95.633-.131l-.421-.783c.8-.433 1.612-.842 2.4-1.219l.384.8c-.775.376-1.569.778-2.361 1.202zm39.678-.306c-.178-.879-.362-1.749-.546-2.606l.87-.187q.281 1.291.546 2.616zm19.314-1.044c-.8-.349-1.627-.692-2.451-1.013l.324-.829c.832.327 1.668.673 2.479 1.026zm-54.212-.923l-.337-.823c.371-.153.742-.3 1.107-.436.468-.181.935-.352 1.406-.524l.3.839c-.461.165-.926.337-1.387.518-.359.133-.723.277-1.088.426zm49.278-1.015c-.832-.293-1.677-.574-2.519-.836l.265-.848c.851.265 1.708.549 2.55.842zm-44.284-.784l-.271-.845c.848-.271 1.718-.53 2.575-.767l.237.857c-.853.239-1.707.49-2.541.755zm178.263-.561l-.839-.3c.3-.842.586-1.687.842-2.51l.848.265c-.264.834-.551 1.69-.856 2.545zm-139.037-.228c-.851-.231-1.718-.446-2.572-.642l.2-.867c.867.2 1.743.418 2.6.652zM100.4 91.778c-.165-.892-.324-1.777-.465-2.641l.882-.143c.137.854.29 1.737.455 2.619zm111.608-.378l-.206-.864c.867-.206 1.755-.4 2.625-.567l.171.876c-.863.169-1.733.355-2.59.555zm23.675-.031c-.1-.465-.209-.923-.315-1.378-.761-.084-1.531-.156-2.3-.215l.072-.885c.667.05 1.344.112 2.011.181l-.072-.3.864-.206c.206.851.405 1.721.608 2.606zm5.272-.536c-.87-.165-1.746-.318-2.616-.452l.137-.879c.879.137 1.768.29 2.644.458zm-23.744-.446l-.137-.879c.882-.137 1.777-.259 2.659-.362l.1.885c-.866.104-1.752.223-2.622.36zm5.266-.611l-.072-.885c.892-.069 1.8-.122 2.684-.156l.034.892c-.878.034-1.77.084-2.646.153zm7.95-.15c-.879-.034-1.774-.053-2.653-.053v-.889c.889 0 1.793.016 2.687.05zm156.318-2.513l-.86-.221c.224-.867.424-1.733.592-2.578l.876.178c-.175.864-.378 1.746-.608 2.625zm-287.2-.63c-.122-.895-.228-1.79-.318-2.662l.885-.094c.087.864.2 1.752.315 2.638zm134.909-.3q-.332-1.333-.655-2.584l.857-.224c.221.839.44 1.705.661 2.594zM387.8 81.839l-.879-.122c.125-.885.218-1.768.284-2.625l.885.065c-.061.877-.158 1.781-.29 2.682zm-288.811-.7c-.062-.9-.109-1.805-.137-2.681l.889-.031c.028.87.072 1.761.137 2.653zm134.12-.118c-.234-.864-.461-1.693-.686-2.482l-.022-.084.854-.246.025.084c.221.8.452 1.631.686 2.5zm155.091-4.56h-.889v-.037c0-.876-.037-1.746-.1-2.594l.889-.069c.065.867.1 1.765.1 2.662zm-156.57-.536c-.271-.842-.561-1.687-.86-2.513l.839-.3c.3.832.592 1.687.867 2.538zm-131.916-.143l-.889-.006c.006-.9.034-1.805.078-2.687l.889.047c-.043.864-.071 1.764-.078 2.646zm287.146-4.549c-.153-.873-.343-1.733-.561-2.563l.857-.228c.224.851.421 1.74.58 2.638zm-157.035-.3c-.327-.826-.67-1.649-1.023-2.447l.814-.355c.355.8.7 1.637 1.038 2.472zm-129.833-.44l-.882-.087c.087-.895.2-1.793.33-2.669l.879.134c-.131.862-.24 1.744-.327 2.623zM385.5 66.176a25.443 25.443 0 0 0-1.035-2.4l.795-.4a26.427 26.427 0 0 1 1.076 2.485zm-157.814-.1c-.383-.792-.789-1.59-1.2-2.36l.786-.418c.418.783.826 1.587 1.216 2.391zm-126.912-.814l-.87-.175c.175-.879.38-1.758.6-2.622l.86.221c-.212.853-.409 1.72-.587 2.58zm282.41-3.762a25.05 25.05 0 0 0-1.524-2.123l.692-.558a24.842 24.842 0 0 1 1.581 2.2zM225.2 61.4c-.443-.764-.9-1.525-1.375-2.263l.748-.477c.477.748.948 1.521 1.4 2.291zm-123.1-1.25l-.848-.268c.271-.854.571-1.708.889-2.544l.832.318c-.309.82-.599 1.662-.867 2.497zm277.808-2.725c-.6-.608-1.256-1.2-1.936-1.758l.564-.689c.7.58 1.378 1.191 2 1.818zm-157.555-.5c-.5-.723-1.023-1.443-1.549-2.142l.708-.536c.536.708 1.063 1.44 1.571 2.17zm-118.371-1.71l-.814-.362c.362-.811.751-1.627 1.163-2.429l.789.4c-.399.791-.782 1.593-1.138 2.391zM375.877 54.1c-.708-.483-1.462-.951-2.235-1.387l.436-.773c.8.449 1.571.929 2.3 1.425zm-156.708-1.386c-.555-.68-1.138-1.359-1.718-2.011l.664-.592c.589.661 1.175 1.347 1.743 2.039zM371.3 51.5c-.773-.368-1.587-.72-2.419-1.051l.331-.826c.848.337 1.68.7 2.472 1.072zm-264.914-1l-.77-.446c.44-.767.913-1.537 1.4-2.295l.745.483c-.477.747-.942 1.508-1.375 2.258zm260.014-.959c-.817-.271-1.665-.533-2.532-.776l.243-.857c.876.246 1.74.514 2.572.792zm-150.75-.779c-.611-.63-1.244-1.26-1.883-1.867l.614-.645c.648.62 1.288 1.256 1.908 1.892zM361.3 48.1c-.839-.2-1.712-.383-2.594-.555l.171-.873c.892.175 1.777.365 2.625.564zm-5.21-1.019c-.851-.137-1.736-.265-2.625-.38l.115-.882c.9.115 1.793.246 2.653.383zm-5.266-.692c-.857-.087-1.746-.171-2.647-.243l.075-.889c.907.075 1.8.156 2.662.246zm-47.974-.134h-.05c-.976 0-1.833-.012-2.628-.041l.031-.889c.786.025 1.634.041 2.6.041h.056zm2.675-.025l-.012-.889.932-.016c.574-.009 1.157-.019 1.736-.025l.013.889c-.58.006-1.163.016-1.74.025zm5.334-.056l-.006-.892q1.286 0 2.663-.031l.016.889q-1.378.031-2.67.037zm5.344-.094l-.022-.889q1.3-.037 2.666-.078l.028.889c-.908.031-1.797.056-2.67.081zm-206.948-.022l-.726-.521c.178-.246.355-.493.539-.739.34-.474.7-.951 1.069-1.419l.7.552c-.359.455-.711.923-1.048 1.39-.182.254-.36.494-.532.74zm188.223-.012c-.973-.09-1.849-.215-2.687-.377l.168-.87c.811.156 1.659.274 2.6.362zm48.049-.087c-.864-.053-1.758-.1-2.659-.137l.037-.889c.907.037 1.805.084 2.675.137zm-23.987-.041l-.025-.889q1.314-.042 2.666-.078l.028.889c-.899.028-1.787.06-2.666.081zm5.331-.153l-.022-.889q1.328-.033 2.675-.056l.016.889c-.892.022-1.784.038-2.666.059zm13.334-.034c-.892-.025-1.786-.044-2.672-.053l.013-.889c.888.009 1.783.028 2.678.05zm-8-.059l-.009-.889q1.263-.014 2.538-.012h.14v.892h-.14c-.849-.001-1.69.006-2.534.012zm-120.39-.58c-.658-.577-1.337-1.157-2.023-1.718l.561-.689c.7.571 1.387 1.157 2.051 1.743zm80.344-.109a14.394 14.394 0 0 1-2.51-1.119l.436-.773a13.768 13.768 0 0 0 2.357 1.051zm-4.745-2.731a12.764 12.764 0 0 1-1.824-2.067l.726-.514a11.812 11.812 0 0 0 1.693 1.92zm-174.874-.331l-.658-.6c.6-.658 1.228-1.309 1.874-1.936l.62.636c-.632.616-1.25 1.255-1.836 1.9zm95.169-.187c-.7-.527-1.412-1.054-2.142-1.565l.514-.726c.736.518 1.462 1.051 2.167 1.584zm-4.334-3.055c-.73-.477-1.487-.954-2.245-1.415l.468-.761c.764.465 1.524.948 2.263 1.434zm-87.05-.43l-.577-.677c.673-.577 1.381-1.144 2.1-1.69l.533.711c-.7.533-1.392 1.088-2.056 1.656zm167.9-.436a19.645 19.645 0 0 1-.967-2.547l.851-.259a18.972 18.972 0 0 0 .92 2.432zm-85.379-1.9c-.758-.433-1.54-.86-2.326-1.278l.415-.786c.792.421 1.584.854 2.351 1.291zm-78.312-.854l-.493-.739c.733-.493 1.5-.976 2.273-1.437l.455.764c-.764.458-1.515.932-2.235 1.415zm73.62-1.634c-.779-.387-1.587-.773-2.4-1.144l.377-.811c.814.377 1.627.767 2.416 1.157zm88.456-.8c-.053-.271-.1-.549-.15-.836-.1-.633-.168-1.256-.212-1.861l.889-.059c.037.577.106 1.175.2 1.777.047.274.1.546.147.811zm-157.537-.274l-.415-.786c.783-.412 1.59-.814 2.407-1.194l.377.8c-.804.384-1.599.783-2.369 1.185zm64.26-1.157c-.8-.346-1.624-.692-2.454-1.026l.334-.823c.832.337 1.665.683 2.472 1.032zm-59.472-1.085l-.34-.82c.814-.337 1.659-.664 2.5-.97l.3.836c-.829.308-1.655.629-2.459.96zm54.546-.91q-.533-.2-1.076-.4c-.461-.156-.938-.315-1.422-.468l.268-.848c.49.156.976.315 1.453.48l1.091.405zm-49.57-.9l-.268-.848c.842-.265 1.708-.524 2.572-.761l.234.857c-.851.245-1.705.498-2.538.76zm44.529-.72c-.842-.231-1.705-.449-2.569-.652l.2-.867c.873.206 1.752.427 2.6.661zm103.8-.3l-.885-.09a13.637 13.637 0 0 1 .53-2.7l.854.262a12.58 12.58 0 0 0-.494 2.536zM139.944 26.9l-.2-.867c.86-.2 1.746-.39 2.625-.564l.168.873c-.869.175-1.737.358-2.593.558zm34.26-.527c-.86-.168-1.74-.327-2.616-.468l.143-.879c.885.143 1.774.3 2.641.474zm-29.056-.5L145 25c.882-.143 1.774-.271 2.659-.383l.112.882c-.871.111-1.754.239-2.624.379zm23.812-.349c-.867-.112-1.755-.212-2.638-.3l.084-.885c.892.084 1.789.187 2.666.3zm-18.547-.318l-.084-.885c.885-.084 1.786-.153 2.678-.209l.05.889c-.879.06-1.771.129-2.644.21zm13.262-.19c-.882-.056-1.774-.1-2.653-.128l.028-.888c.892.031 1.793.072 2.681.131zm-7.962-.134l-.028-.892c.848-.022 1.7-.037 2.547-.037h.14l-.006.889h-.134c-.832.007-1.68.02-2.519.045zm128.976-2.469l-.77-.446a12.217 12.217 0 0 1 1.643-2.217l.652.608a11.5 11.5 0 0 0-1.525 2.059zm3.457-3.754l-.518-.72a17.131 17.131 0 0 1 2.348-1.406l.4.8a16.152 16.152 0 0 0-2.229 1.331zm4.639-2.329l-.29-.842a25.11 25.11 0 0 1 2.613-.739l.2.867a24.294 24.294 0 0 0-2.522.719zm5.107-1.185l-.122-.879c.87-.122 1.777-.212 2.691-.265l.053.885c-.891.062-1.774.149-2.622.264z" class="cls-1" transform="translate(-6.681 5.679)"/>
        <path id="Path_140" d="M19.033 59.875a7.209 7.209 0 0 0-7.208 7.208c0 3.981 4.34 10.5 7.208 12.835.468.377 7.208-8.854 7.208-12.835a7.209 7.209 0 0 0-7.208-7.208zm0 10.653a3.443 3.443 0 1 1 3.442-3.445 3.443 3.443 0 0 1-3.442 3.445z" class="cls-2" transform="translate(-11.825 102.812)"/>
        <path id="Path_141" d="M57.469 12.161a7.207 7.207 0 0 0-7.208 7.208c0 3.978 4.337 10.5 7.208 12.835.468.377 7.208-8.857 7.208-12.835a7.207 7.207 0 0 0-7.208-7.208zm0 10.65a3.443 3.443 0 1 1 3.445-3.442 3.441 3.441 0 0 1-3.445 3.442z" class="cls-2" transform="translate(69.568 1.772)"/>
        <path id="Path_142" d="M112.575 7.692a7.208 7.208 0 0 0-7.211 7.208c0 3.981 4.34 10.5 7.211 12.835.461.377 7.2-8.854 7.2-12.835a7.207 7.207 0 0 0-7.2-7.208zm0 10.65a3.442 3.442 0 1 1 3.442-3.442 3.441 3.441 0 0 1-3.442 3.442z" class="cls-2" transform="translate(186.256 -7.692)"/>
        <path id="Path_143" d="M121.607 49.061a7.21 7.21 0 0 0-7.211 7.208c0 3.981 4.34 10.5 7.211 12.835.461.377 7.2-8.854 7.2-12.835a7.207 7.207 0 0 0-7.2-7.208zm0 10.65a3.442 3.442 0 1 1 3.439-3.442 3.443 3.443 0 0 1-3.439 3.442z" class="cls-2" transform="translate(205.382 79.912)"/>
    </g>
    <g id="Group_73" transform="translate(20.113 15.343)">
        <g id="Group_68" transform="translate(0 24.961)">
            <path id="Path_230" d="M82.116 59.132H31.009a.507.507 0 1 1 0-1.014h51.107a.507.507 0 1 1 0 1.014z" class="cls-1" transform="translate(-18.604 71.253)"/>
            <path id="Path_231" d="M71.558 57.607H34.592a.507.507 0 1 1 0-1.014h36.966a.507.507 0 1 1 0 1.014z" class="cls-1" transform="translate(-8.046 66.76)"/>
            <path id="Path_232" d="M93.35 56.081H28a.507.507 0 1 1 0-1.014h65.35a.507.507 0 1 1 0 1.014z" class="cls-1" transform="translate(-27.486 62.263)"/>
            <path id="Path_233" d="M74.462 54.559h-40.51a.509.509 0 1 1 0-1.018h40.51a.509.509 0 0 1 0 1.018z" class="cls-1" transform="translate(-9.932 57.766)"/>
            <path id="Path_234" d="M69.08 53.03H40.892a.507.507 0 1 1 0-1.014H69.08a.507.507 0 1 1 0 1.014z" class="cls-1" transform="translate(10.519 53.272)"/>
            <path id="Path_235" d="M79.3 32.455H61.382a.507.507 0 1 1 0-1.014H79.3a.507.507 0 1 1 0 1.014z" class="cls-1" transform="translate(70.898 -7.358)"/>
            <path id="Path_236" d="M94.809 30.933H57.843a.509.509 0 1 1 0-1.018h36.966a.509.509 0 0 1 0 1.018z" class="cls-1" transform="translate(60.469 -11.855)"/>
            <path id="Path_237" d="M108.6 29.4H55.141a.507.507 0 1 1 0-1.014H108.6a.507.507 0 1 1 0 1.014z" class="cls-1" transform="translate(52.507 -16.348)"/>
            <path id="Path_238" d="M100.609 27.875h-40.5a.505.505 0 1 1 0-1.01h40.5a.505.505 0 1 1 0 1.01z" class="cls-1" transform="translate(67.141 -20.842)"/>
            <path id="Path_239" d="M91.563 26.353H63.371a.507.507 0 1 1 0-1.014h28.192a.507.507 0 0 1 0 1.014z" class="cls-1" transform="translate(76.759 -25.339)"/>
            <path id="Path_240" d="M97.7 51.5H32.35a.507.507 0 0 1 0-1.014H97.7a.507.507 0 0 1 0 1.014z" class="cls-1" transform="translate(-14.641 48.775)"/>
            <path id="Path_241" d="M95.408 49.979H30.053a.507.507 0 1 1 0-1.014h65.355a.507.507 0 0 1 0 1.014z" class="cls-1" transform="translate(-21.422 44.282)"/>
        </g>
        <g id="Group_37216" transform="translate(26.432)">
            <g id="Group_65" transform="translate(0 3.059)">
                <path id="Path_144" d="M117.168 90.118H34.586S36.863 58.571 45.728 45.7c17.18-24.94 72.818-19.391 77.558-4.444 4.014 12.65-6.118 48.862-6.118 48.862z" class="cls-2" transform="translate(-32.995 5.933)"/>
                <path id="Path_145" d="M97.33 77.959a23.618 23.618 0 1 1-23.621-23.618A23.619 23.619 0 0 1 97.33 77.959z" class="cls-3" transform="translate(12.706 82.026)"/>
                <path id="Path_146" d="M77.507 69.487a12.269 12.269 0 1 1-12.27-12.271 12.27 12.27 0 0 1 12.27 12.271z" class="cls-1" transform="translate(21.178 90.498)"/>
                <path id="Path_147" d="M128.092 77.959a23.618 23.618 0 1 1-23.614-23.618 23.615 23.615 0 0 1 23.614 23.618z" class="cls-3" transform="translate(103.355 82.026)"/>
                <path id="Path_148" d="M108.273 69.487a12.271 12.271 0 1 1-12.267-12.271 12.267 12.267 0 0 1 12.267 12.271z" class="cls-1" transform="translate(111.827 90.498)"/>
                <path id="Path_149" d="M75.632 58.348s18.171 3.189 33.48-2.179l-9.827 15.752-31.053.651z" class="cls-4" transform="translate(66.152 87.413)"/>
                <path id="Path_150" fill="#e7aa39" d="M73.358 52.5s.738-5.466 2.317-6.938-2.317-3.26-2.317-3.26-5.679 8.415-2.735 11.154 2.735-.956 2.735-.956z" transform="translate(70.703 46.559)"/>
                <rect id="Rectangle_13" width="56.785" height="22.486" class="cls-3" rx=".96" transform="translate(79.493 145.761)"/>
                <path id="Path_151" d="M153.127 63.751c-3.043 18.069-10.514 43.549-10.514 43.549H63.046s-39.393-.26-4.349-29.147c16.738-13.8 0-18.81 40.139-28.417 27.58-6.6 52.2-6.544 54.671-2.834 1.459 2.191.982 8.782-.38 16.849z" class="cls-2" transform="translate(-4.74 52.684)"/>
                <path id="Path_152" d="M132.875 93.329s10.731-29.569 4.626-32.1-35.142-2.948-42.933-2.948-6.863-10.727-9.05-10.51C67.027 49.623 70.836 59.067 59.3 69.905c-12.844 12.073-21.89 22.935 1.357 23.74 14.974.521 72.218-.316 72.218-.316z" class="cls-6" transform="translate(1.509 62.669)"/>
                <g id="Group_51" transform="translate(105.442 139.836)">
                    <path id="Path_153" d="M77.625 56.2a.975.975 0 0 1-.975.979h-11.1a.981.981 0 0 1-.979-.979.981.981 0 0 1 .979-.979h11.1a.975.975 0 0 1 .975.979z" class="cls-1" transform="translate(-50.073 -55.22)"/>
                    <path id="Path_154" d="M81.91 57.266a.974.974 0 0 1-.975.975H64.1a.978.978 0 0 1-.979-.975.976.976 0 0 1 .979-.979h16.835a.973.973 0 0 1 .975.979z" class="cls-1" transform="translate(-54.357 -52.076)"/>
                    <path id="Path_155" d="M88.451 58.332a.975.975 0 0 1-.975.979H61.882a.982.982 0 0 1-.983-.979.982.982 0 0 1 .983-.979h25.595a.975.975 0 0 1 .975.979z" class="cls-1" transform="translate(-60.899 -48.935)"/>
                </g>
                <path id="Path_156" d="M149.8 115.706c-21.467-1.018-48.3-.241-53.037 7.653-2.506 4.18-8.122 6.062-12.847 6.907a44.208 44.208 0 0 1-7.692.679c6.137-7.724 24.17-33 23.917-57S85.138 36.814 85.138 36.814s5.64-3.974 13.218 5.024c4.6 5.466 10.226 16.261 11.58 26.286.063.474.122.939.186 1.409.055.426.114.853.166 1.275.067.474.126.943.185 1.409.059.426.114.856.17 1.275.063.478.13.947.189 1.405.063.434.118.856.182 1.279.067.482.134.947.205 1.405.063.438.13.864.2 1.275.075.485.158.955.241 1.409s.158.868.241 1.279c.1.489.2.963.312 1.405s.217.876.339 1.279a8.025 8.025 0 0 0 .56 1.405c2.123 4.152 7.724 6.658 13.806 8.545 5.727 1.78 11.876 3.007 15.933 4.559 8.849 3.368 13.049 17.044 6.949 16.969z" class="cls-4" transform="translate(89.708 27.801)"/>
                <path id="Path_157" d="M95.011 59l-.039.028c-2.1 1.476-9.946 3.631-11.939-8.047 0 0-2.112-15.523 10.676-12.788a1.653 1.653 0 0 1 .813.671c3.062 3.71 2.403 18.605.489 20.136z" class="cls-2" transform="translate(109.381 33.49)"/>
                <path id="Path_158" d="M88.793 58.258c-1.141-.351-2.143-1.744-2.83-3.761a20.417 20.417 0 0 1-.951-6.417c0-4.811 1.4-8.849 3.292-9.958 1.137 1.377 1.76 4.282 2 7.479.403 5.431-.304 11.699-1.511 12.657z" class="cls-1" transform="translate(115.599 34.232)"/>
                <path id="Path_159" d="M144.059 71.514c-21.467-1.018-48.3-.241-53.037 7.653-2.506 4.18-8.122 6.062-12.847 6.907 3.481-4.63 11.106-16.92 14.11-23.744 4.543-10.341 4.961-12.882 24.687-10.641 0 0 16.083 1.3 20.14 2.854 8.841 3.37 13.048 17.046 6.947 16.971z" class="cls-6" transform="translate(95.452 71.993)"/>
                <g id="Group_52" transform="translate(105.442 93.703)">
                    <path id="Path_160" d="M68.055 44.139a.611.611 0 0 1-.608.612h-5.936a.615.615 0 0 1-.612-.612.611.611 0 0 1 .612-.608h5.936a.608.608 0 0 1 .608.608z" class="cls-1" transform="translate(-60.899 -43.531)"/>
                    <path id="Path_161" d="M68.055 44.664a.608.608 0 0 1-.608.608h-5.936a.611.611 0 0 1-.612-.608.611.611 0 0 1 .612-.608h5.936a.608.608 0 0 1 .608.608z" class="cls-1" transform="translate(-60.899 -41.984)"/>
                    <path id="Path_162" d="M68.055 45.188a.609.609 0 0 1-.608.612h-5.936a.612.612 0 0 1-.612-.612.611.611 0 0 1 .612-.608h5.936a.608.608 0 0 1 .608.608z" class="cls-1" transform="translate(-60.899 -40.44)"/>
                </g>
                <path id="Path_163" d="M110.621 59.041s5.226-3.378 1.752-6.674-15.115-4.385-29.083-2.723-17.212-4.156-21.1-9.678-6.382 10.656 2.242 15.811 25.113 3.592 33.327 3.6a120.7 120.7 0 0 0 12.862-.336z" class="cls-7" transform="translate(37.821 36.327)"/>
                <path id="Path_164" d="M58.5 53.65c-2.522 2.972-5.786 6.729-9.678 7.448a3.228 3.228 0 0 1-1.89-.209c-2.66-1.145-3.726-5.7-.426-7.238.087-.039.178-.083.268-.114 4.08-1.671 11.726.113 11.726.113z" class="cls-4" transform="translate(-3.922 77.551)"/>
                <path id="Path_165" d="M48.111 56.76a5.522 5.522 0 0 1-1.176 3.6c-2.66-1.145-3.726-5.7-.426-7.238.087-.039.178-.083.268-.114a5.373 5.373 0 0 1 1.334 3.752z" class="cls-7" transform="translate(-3.922 78.083)"/>
                <g id="Group_53" transform="translate(195.784 95.925)">
                    <path id="Path_166" d="M90.826 49.579H84.5a.7.7 0 1 1 0-1.405h5.77a8.026 8.026 0 0 0 .556 1.405z" class="cls-2" transform="translate(-83.789 -32.071)"/>
                    <path id="Path_167" d="M89.926 48.9H84.5a.7.7 0 1 1 0-1.405h5.119c.094.488.197.962.307 1.405z" class="cls-2" transform="translate(-83.789 -34.075)"/>
                    <path id="Path_168" d="M89.374 48.222H84.5a.7.7 0 1 1 0-1.409h4.637c.071.487.154.955.237 1.409z" class="cls-2" transform="translate(-83.789 -36.082)"/>
                    <path id="Path_169" d="M88.932 47.539H84.5a.7.7 0 1 1 0-1.405h4.231c.062.482.13.947.201 1.405z" class="cls-2" transform="translate(-83.789 -38.083)"/>
                    <path id="Path_170" d="M88.545 46.859H84.5a.7.7 0 1 1 0-1.405h3.86c.059.478.126.946.185 1.405z" class="cls-2" transform="translate(-83.789 -40.086)"/>
                    <path id="Path_171" d="M88.186 46.183H84.5a.7.7 0 1 1 0-1.409H88c.067.474.126.943.186 1.409z" class="cls-2" transform="translate(-83.789 -42.09)"/>
                    <path id="Path_172" d="M87.834 45.5H84.5a.7.7 0 1 1 0-1.409h3.153c.059.477.118.942.181 1.409z" class="cls-2" transform="translate(-83.789 -44.094)"/>
                </g>
                <g id="Group_55" transform="translate(0 96.378)">
                    <path id="Path_173" d="M34.183 45.153a.943.943 0 0 1 .943-.943h83.451a.948.948 0 0 1 .951.943.948.948 0 0 1-.951.947H35.126a.944.944 0 0 1-.943-.947z" class="cls-1" transform="translate(-34.183 -44.206)"/>
                    <path id="Path_174" d="M54.3 56.779a.945.945 0 0 1-.947-.947V45.156a.947.947 0 0 1 1.894 0v10.676a.947.947 0 0 1-.947.947z" class="cls-1" transform="translate(22.31 -44.209)"/>
                    <g id="Group_54" transform="translate(2.104 .947)">
                        <path id="Path_175" d="M36.291 46.351a.786.786 0 0 1-.785.789.792.792 0 0 1-.789-.789v-1.113a.792.792 0 0 1 .789-.789.786.786 0 0 1 .785.789z" class="cls-1" transform="translate(-34.716 -44.449)"/>
                        <path id="Path_176" d="M40.331 46.351a.788.788 0 0 1-.785.789.789.789 0 0 1-.789-.789v-1.113a.789.789 0 0 1 .789-.789.788.788 0 0 1 .785.789z" class="cls-1" transform="translate(-22.811 -44.449)"/>
                        <path id="Path_177" d="M44.37 46.351a.786.786 0 0 1-.785.789.792.792 0 0 1-.789-.789v-1.113a.792.792 0 0 1 .789-.789.786.786 0 0 1 .785.789z" class="cls-1" transform="translate(-10.909 -44.449)"/>
                        <path id="Path_178" d="M48.413 46.351a.789.789 0 0 1-.789.789.792.792 0 0 1-.789-.789v-1.113a.792.792 0 0 1 .789-.789.789.789 0 0 1 .789.789z" class="cls-1" transform="translate(.993 -44.449)"/>
                        <path id="Path_179" d="M52.453 46.351a.792.792 0 0 1-.789.789.789.789 0 0 1-.789-.789v-1.113a.789.789 0 0 1 .789-.789.792.792 0 0 1 .789.789z" class="cls-1" transform="translate(12.898 -44.449)"/>
                        <path id="Path_180" d="M56.493 46.351a.793.793 0 0 1-.793.789.788.788 0 0 1-.785-.789v-1.113a.788.788 0 0 1 .785-.789.793.793 0 0 1 .793.789z" class="cls-1" transform="translate(24.803 -44.449)"/>
                    </g>
                    <path id="Path_181" d="M72.36 67.187a.739.739 0 0 1-.134-.012 36.711 36.711 0 0 1-22.958-12.038A31.3 31.3 0 0 1 43.3 45.46a.945.945 0 1 1 1.792-.6c.079.233 6.177 17.417 27.4 20.444a.948.948 0 0 1-.13 1.887z" class="cls-1" transform="translate(-7.468 -44.205)"/>
                </g>
                <path id="Path_182" d="M64.722 54.751c-2.218 0-4.645-.647-5.9-3.1S57.689 40.459 57.7 39.469a.949.949 0 0 1 1.9.036c-.067 3.548.126 9.752.908 11.28 1.843 3.611 8.182 1.4 8.245 1.377a.948.948 0 1 1 .639 1.784 15.416 15.416 0 0 1-4.67.805z" class="cls-1" transform="translate(35.1 35.467)"/>
                <path id="Path_183" d="M153.281 134.878H52.086a2.366 2.366 0 1 1 0-4.732h100.157a113.814 113.814 0 0 0 19.292-30.2c9.772-23.385 6.737-43.612-9.022-60.121a2.367 2.367 0 0 1 3.426-3.268c16.963 17.772 20.393 40.364 9.914 65.335a115.935 115.935 0 0 1-20.867 32.261 2.37 2.37 0 0 1-1.705.725z" class="cls-2" transform="translate(11.583 27.471)"/>
                <path id="Rectangle_14" d="M.761 0h9.212a.758.758 0 0 1 .758.758v6.22a.758.758 0 0 1-.758.758H.758A.758.758 0 0 1 0 6.979V.761A.761.761 0 0 1 .761 0z" class="cls-2" transform="rotate(-10.962 388.095 -866.157)"/>
                <path id="Path_184" d="M86.66 39.667a5.05 5.05 0 1 1-5.048-5.056 5.05 5.05 0 0 1 5.048 5.056z" class="cls-7" transform="translate(90.693 23.886)"/>
                <path id="Path_185" d="M84.615 61.979a.948.948 0 0 1-.13-1.887c.264-.036 26.937-3.8 43.805-1.894 3.722.395 4.7-.039 4.949-.332.328-.387.012-1.559-.288-2.692a.946.946 0 1 1 1.827-.489c.45 1.681.876 3.268-.1 4.409-.939 1.1-2.85 1.381-6.6.987-16.628-1.879-43.063 1.851-43.332 1.891-.04.004-.084.007-.131.007z" class="cls-1" transform="translate(111.643 80.971)"/>
                <path id="Path_186" d="M112.316 63.555a5.523 5.523 0 0 1-4.061-5.285c-.474-5.924-2.526-9.082-11.836-8.454-8.047.549-22.335 4.756-38.394-.276 27.775-5.731 52.195-6.54 54.67-2.834 1.46 2.194.983 8.782-.379 16.849z" class="cls-4" transform="translate(36.071 52.881)"/>
                <path id="Path_188" d="M90.3 45.6c-3.477 1.421-4.215 6.129-4.341 8.9a20.417 20.417 0 0 1-.951-6.417c0-4.811 1.4-8.849 3.292-9.958 1.14 1.375 1.764 4.275 2 7.475z" class="cls-6" transform="translate(115.599 34.232)"/>
                <g id="Group_56" transform="translate(127.528 107.248)">
                    <path id="Path_189" d="M78.785 53.584a6.145 6.145 0 1 1-6.145-6.145 6.145 6.145 0 0 1 6.145 6.145z" class="cls-4" transform="translate(-66.495 -45.56)"/>
                    <path id="Path_190" d="M78.961 53.112a6.143 6.143 0 1 1-6.141-6.149 6.144 6.144 0 0 1 6.141 6.149z" class="cls-2" transform="translate(-65.965 -46.963)"/>
                    <path id="Path_191" d="M77.625 52.271a5.3 5.3 0 1 1-5.308-5.308 5.307 5.307 0 0 1 5.308 5.308z" class="cls-6" transform="translate(-64.96 -46.963)"/>
                </g>
                <path id="Path_192" d="M57.057 47.512s.7 6.425 7.006 8.367 25.922.687 29.186 1.129c0 0-1.5-1.93-13.873-1.681s-17.835.513-22.319-7.815z" class="cls-4" transform="translate(33.222 61.903)"/>
                <path id="Path_193" d="M87.209 41.36s-.32 5.561 2.388 7.191c0 0-.853.47-3.86-.257s-2.364-4.357 1.472-6.934z" class="cls-4" transform="translate(112.162 43.774)"/>
                <path id="Path_210" d="M45.962 54.919a16.806 16.806 0 0 1 7.653 0l1.291-1.141s-3.627-1.741-9.638-.249a3.62 3.62 0 0 1 .694 1.39z" class="cls-2" transform="translate(-1.521 77.856)"/>
                <g id="Group_64" transform="translate(37.593)">
                    <path id="Rectangle_15" d="M0 0H0.79V96.085H0z" class="cls-1" transform="translate(39.148 2.031)"/>
                    <path id="Path_211" d="M83.646 19.789l-39.938 12.72 39.938 8.62z" class="cls-2" transform="translate(-43.708 -19.789)"/>
                </g>
            </g>
            <g id="Group_67" transform="translate(106.554)">
                <g id="Group_66">
                    <path id="Path_212" d="M81.7 33.374s-1.8 7.826-3.86 9.267-5.849 4.038-7.38 7.684 15.752 7.25 15.752 7.25 3.607-9.634 6.145-14.721 8.134-10.609 8.134-10.609l3.315-5.1s-4.507-6.149-8-5.735-8.249 5.439-7.748 10.723-6.358 1.241-6.358 1.241z" class="cls-8" transform="translate(-34.118 -12)"/>
                    <path id="Path_213" d="M88.551 34.773l-6.2 20.744 19.564-2.467-6.315 6.706-20.405 3.734-4.618-5.624s.434-9.851 1.516-12.736c.584-1.563 1.831-9.251 5.02-12.8 2.699-3.003 12.839-5.498 11.438 2.443z" class="cls-4" transform="translate(-33.492 11.73)"/>
                    <path id="Path_214" d="M89.324 23.936a2.358 2.358 0 0 1 2.869 2.246c.379 2.786-.9 8.111-1.287 9.085s1.993 4.428 2.4 4.926-.438 1.969-1.042 2.9a10.888 10.888 0 0 1-4.448 4.294c-2.747 1.433-11.773-2.131-12.29-2.688s-.225-15.077.9-16.028 7.562-6.125 8.288-6.185 2.147.975 2.412 1.085 2.198.365 2.198.365z" class="cls-8" transform="translate(-19.635 -8.787)"/>
                    <path id="Path_215" d="M61.356 44.455s-3.268 17.492 18.423 17.109c38.094-.671 37.222-.6 37.222-.6l-10.708 46.3 3.781-.588L134.865 48.7s-66.63-24.749-73.509-4.245z" class="cls-2" transform="translate(-61.181 32)"/>
                    <path id="Path_216" d="M77.29 52.3l8.51-.85-5.987 18s7.578-3.489 9.674-1.058.849 7.676-5.557 7.432-12.519-.335-12.519-.335z" class="cls-3" transform="translate(-31.028 76.566)"/>
                    <path id="Path_217" d="M61.575 69.209s7.29-8.766 29.526 2.084c5.462 2.664 20.811-34.151 20.811-34.151S105.85 27 100.98 27.03 61.575 69.209 61.575 69.209z" class="cls-2" transform="translate(-60.018 4.605)"/>
                    <path id="Path_218" d="M65.278 70.426l27.87-7.576-12.692-2.366 3.315-32z" class="cls-4" transform="translate(-49.105 8.878)"/>
                    <path id="Path_219" d="M105.016 64.868L66.4 70.228l14.052-38.059S82.378 25.85 87.7 27.5s10.593 3.907-5.675 31.677l24.178.391z" class="cls-2" transform="translate(-45.785 5.189)"/>
                    <path id="Path_220" d="M87.012 39.954a5.536 5.536 0 1 1-5.912-5.126 5.534 5.534 0 0 1 5.912 5.126z" class="cls-8" transform="translate(-17.645 27.541)"/>
                    <path id="Path_221" d="M83.368 39.11a3.638 3.638 0 1 1-3.888-3.37 3.632 3.632 0 0 1 3.888 3.37z" class="cls-7" transform="translate(-17.215 30.244)"/>
                    <path id="Path_222" d="M73.346 23.862s-2.743 6.2-1.263 9.374 2.265 6.942 5.549 6.066 1.642-4.148 1.642-4.148l5.439-5.147a9.229 9.229 0 0 1 .572 2.952c.154 2.068.355 3.347.651 2.771a16.069 16.069 0 0 1 4.2-6.362c2.909-2.538-3.671-6.567-3.671-6.567L82.5 22.09z" class="cls-7" transform="translate(-30.344 -9.952)"/>
                    <path id="Path_223" d="M79.865 29.047s1.859-6.532-2.408-6.228-5.81 9.212-2.214 10.6 3.813-.754 4.468-3.331z" class="cls-8" transform="translate(-25.654 -7.835)"/>
                    <path id="Path_224" d="M82.574 21.137s1.437 2.925 2.633 4.985-.45 3.876-1.642 4.4-5.36-1.954-5.36-1.954.541-3.884.821-3.99 3.548-3.441 3.548-3.441z" class="cls-7" transform="translate(-11.013 -12.76)"/>
                    <path id="Path_225" d="M112.454 38.439l-1.22-.091-5.379-.4-6.773-.5-1.725-.126-4.124-.308-.588-.051-5.478-.4-5.47-.407h-1.184L69.2 36.122s-1.192-1.18.706-1.346c1.614-.138 8.486-.28 10.491-.32.383-2.711 1.366-8.332 3.339-11.971 1.105-2.025 3.726-3.276 8.355-3.446v-.008c.746-.024 1.535-.024 2.376 0 7.688.253 12.918 3.552 15.736 7.917l-.028.442-.438 6.9-.083 1.35 1.409.217 1.172.17.478.071a15.56 15.56 0 0 1-.259 2.341z" class="cls-2" transform="translate(-38.624 -19.015)"/>
                    <path id="Path_226" d="M84.863 40.023l2.1-1.989L73.05 26.268l-1.768 3.714s9.733 8.375 13.581 10.041z" class="cls-2" transform="translate(-31.414 2.36)"/>
                </g>
                <path id="Path_227" d="M67.835 62.609l.217-.545c.482-1.235 11.789-30.26 12.906-32.15 1.224-2.056 4.515-1.934 4.653-1.926l-.035.762c-.032 0-2.976-.111-3.959 1.555C80.611 32 70.57 57.7 68.972 61.792l29.751-1.354.035.762z" class="cls-9" transform="translate(-41.572 7.417)"/>
                <path id="Path_228" d="M105.765 106.9l-.73-.225 13.309-43.095c-3.765-.221-28.492-1.6-41.564-.45-9.176.809-12.267-1.366-13.241-3.331a4.774 4.774 0 0 1 1.109-5.257c2.8-3.071 17.405-21.522 17.551-21.711l.6.478c-.146.182-14.769 18.656-17.587 21.751a4.024 4.024 0 0 0-.987 4.4c.71 1.437 3.28 3.722 12.488 2.913 14.161-1.247 41.883.458 42.163.474l.485.032-.142.466z" class="cls-9" transform="translate(-55.414 21.706)"/>
                <path id="Path_229" d="M79.364 31.67a22.1 22.1 0 0 0 .039 3.1l-7.009-.308-.628-.028c.383-2.711 1.366-8.332 3.339-11.971 1.105-2.025 3.726-3.276 8.355-3.446a29.152 29.152 0 0 0-4.096 12.653z" class="cls-4" transform="translate(-29.988 -18.995)"/>
            </g>
            <g id="Group_72" transform="translate(65.095 127.582)">
                <g id="Group_70">
                    <path id="Path_242" d="M71.144 53.479c1.551 2.9-1.689 7.653-7.238 10.613s-11.3 3.015-12.843.114S52.752 56.558 58.3 53.6s11.3-3.018 12.844-.121z" class="cls-7" transform="translate(-50.676 -51.34)"/>
                    <g id="Group_69" transform="translate(2.364 2.313)">
                        <path id="Path_243" d="M53.284 57.943l-1.346-2.518-.324.174c-.043-.043-.087-.095-.126-.142a1.518 1.518 0 0 1-.091-.15 1.037 1.037 0 0 1-.075-.162 1.416 1.416 0 0 1-.047-.185l.008-.008 2.944-1.567.608 1.141a.787.787 0 0 1-.15.154 1.439 1.439 0 0 1-.178.122 1.7 1.7 0 0 1-.205.083.713.713 0 0 1-.217.036l-.241-.458-.987.525.478.9 1.231-.659a1.1 1.1 0 0 1 .142.158c.039.059.071.111.1.162a1.43 1.43 0 0 1 .079.174c.02.067.039.134.055.2l-1.231.659.47.884.407-.213a1.459 1.459 0 0 1 .13.142c.032.051.067.1.091.146a1.54 1.54 0 0 1 .075.162l.047.189-1.626.868a1.454 1.454 0 0 1-.126-.146.63.63 0 0 1-.095-.15.871.871 0 0 1-.071-.162.852.852 0 0 1-.051-.186z" class="cls-6" transform="translate(-51.275 -47.63)"/>
                        <path id="Path_244" d="M54.139 57.244l-1.346-2.518-.324.174c-.047-.047-.087-.095-.126-.142a1.041 1.041 0 0 1-.166-.312c-.02-.059-.036-.122-.051-.185L54.1 53.2a1.6 1.6 0 0 1 .564-.182 1.322 1.322 0 0 1 .517.039 1.2 1.2 0 0 1 .442.237 1.432 1.432 0 0 1 .32.395 1.686 1.686 0 0 1 .107.276 1.228 1.228 0 0 1 .059.343 1.434 1.434 0 0 1-.043.379 1.011 1.011 0 0 1-.185.375l1.042.691.347-.185a1.052 1.052 0 0 1 .126.142.763.763 0 0 1 .095.146 1 1 0 0 1 .071.162 1.125 1.125 0 0 1 .051.189l-1.014.541-1.529-1.114-.521.276.466.868.371-.2a1.052 1.052 0 0 1 .126.142 1.361 1.361 0 0 1 .1.146.768.768 0 0 1 .067.166 1.427 1.427 0 0 1 .051.186l-1.571.841a1.117 1.117 0 0 1-.13-.146 1.086 1.086 0 0 1-.1-.15 1.456 1.456 0 0 1-.067-.158 1.415 1.415 0 0 1-.047-.186zm.651-2.317a.5.5 0 0 0 .245-.754.522.522 0 0 0-.316-.284.567.567 0 0 0-.43.075l-.6.324.509.959z" class="cls-6" transform="translate(-48.767 -48.727)"/>
                        <path id="Path_245" d="M55.1 57l-1.34-2.519-.324.17a1.363 1.363 0 0 1-.126-.142 1.089 1.089 0 0 1-.1-.15.664.664 0 0 1-.067-.162.954.954 0 0 1-.051-.189L56.1 52.4l.56 1.05a.7.7 0 0 1-.15.158 1.386 1.386 0 0 1-.178.118 1.106 1.106 0 0 1-.205.087.708.708 0 0 1-.213.036l-.2-.375-1.042.557.45.841 1.362-.73a1.071 1.071 0 0 1 .138.162.982.982 0 0 1 .1.162.884.884 0 0 1 .075.174 1.44 1.44 0 0 1 .059.2l-1.37.726.489.912 1.074-.572-.233-.43a.707.707 0 0 1 .15-.158 1.354 1.354 0 0 1 .185-.122 1.066 1.066 0 0 1 .2-.083.671.671 0 0 1 .213-.036l.588 1.109-3.035 1.622a1.147 1.147 0 0 1-.13-.146 1.572 1.572 0 0 1-.095-.15.959.959 0 0 1-.071-.158c-.02-.063-.032-.122-.047-.186z" class="cls-6" transform="translate(-45.918 -50.514)"/>
                        <path id="Path_246" d="M56 56.516L54.652 54l-.32.17a1.05 1.05 0 0 1-.126-.142 1.25 1.25 0 0 1-.217-.5L57 51.926l.564 1.054a.786.786 0 0 1-.15.154 1.315 1.315 0 0 1-.178.122 2.021 2.021 0 0 1-.205.083.733.733 0 0 1-.217.036L56.61 53l-1.038.556.446.837 1.366-.73a1.856 1.856 0 0 1 .138.162 1.273 1.273 0 0 1 .1.162 1.2 1.2 0 0 1 .079.174.805.805 0 0 1 .051.2l-1.362.726.489.916 1.07-.576-.23-.427a.7.7 0 0 1 .15-.158 1.25 1.25 0 0 1 .186-.122 1.1 1.1 0 0 1 .193-.083.753.753 0 0 1 .217-.036l.592 1.109-3.039 1.622a1.118 1.118 0 0 1-.126-.146 1.055 1.055 0 0 1-.1-.146 1.532 1.532 0 0 1-.067-.162c-.02-.059-.036-.122-.051-.185z" class="cls-6" transform="translate(-43.277 -51.926)"/>
                    </g>
                </g>
                <g id="Group_71" transform="translate(6.994 4.732)">
                    <path id="Path_247" d="M56.406 68.814a4.477 4.477 0 0 1-1.535.118 3.369 3.369 0 0 1-1.2-.343 2.287 2.287 0 0 1-.813-.691 2.014 2.014 0 0 1-.375-.935 2.892 2.892 0 0 1 .063-1.18 5.363 5.363 0 0 1 .5-1.271 7.842 7.842 0 0 1 .86-1.271 10.084 10.084 0 0 1 2.558-2.2 9.583 9.583 0 0 1 1.559-.75c.138-.395.245-.718.328-.971a5.552 5.552 0 0 0 .186-.635 2.038 2.038 0 0 0 .071-.422 1.414 1.414 0 0 0-.016-.343c-.028-.2.016-.292.126-.3a.683.683 0 0 1 .395.182 2.281 2.281 0 0 1 .43.47 1.407 1.407 0 0 1 .249.572l.016.186a.674.674 0 0 1-.02.186 2.513 2.513 0 0 1-.091.3c-.039.126-.1.292-.178.5a1.826 1.826 0 0 1 .809.178 1.907 1.907 0 0 1 .568.422 2.09 2.09 0 0 1 .359.529 1.87 1.87 0 0 1 .158.47.83.83 0 0 1 0 .332q-.03.089-.083.095c-.032 0-.063-.016-.1-.063a.253.253 0 0 1-.063-.146.4.4 0 0 0-.193-.268 1.4 1.4 0 0 0-.462-.193 3.382 3.382 0 0 0-.655-.087 3.963 3.963 0 0 0-.766.051c-.13.367-.253.706-.359 1.014s-.2.6-.276.868a5.147 5.147 0 0 0-.158.762 2.445 2.445 0 0 0 0 .659c.036.217 0 .335-.122.355a.537.537 0 0 1-.391-.13 1.985 1.985 0 0 1-.438-.422 1.1 1.1 0 0 1-.247-.542 1.856 1.856 0 0 1 0-.553 4.33 4.33 0 0 1 .114-.509c.051-.17.107-.335.166-.5a3.116 3.116 0 0 0 .154-.525 8.282 8.282 0 0 0-2.775 2.336 5.188 5.188 0 0 0-.774 1.433A2.867 2.867 0 0 0 53.837 67a2.214 2.214 0 0 0 .225.73 1.577 1.577 0 0 0 1.176.849 2.4 2.4 0 0 0 .963-.051 5.316 5.316 0 0 0 1.883-.856 8.442 8.442 0 0 0 1.6-1.484A12.141 12.141 0 0 0 61 64.271a20.084 20.084 0 0 0 1.046-2.155 19.089 19.089 0 0 0 .774-2.206q.32-1.1.513-2.048a16.059 16.059 0 0 0 .26-1.7 5.006 5.006 0 0 0 0-1.156.539.539 0 0 0-.383-.5 1.476 1.476 0 0 0-.793.047 5.783 5.783 0 0 0-1.066.45 12.465 12.465 0 0 0-1.192.722c-.395.272-.785.564-1.16.868s-.71.6-1 .88a6.884 6.884 0 0 0-.691.758c-.17.225-.249.395-.229.505a.239.239 0 0 0 .051.142.254.254 0 0 1 .063.122c.008.091-.043.122-.166.095a1.382 1.382 0 0 1-.43-.178 2.323 2.323 0 0 1-.458-.351.809.809 0 0 1-.257-.43.858.858 0 0 1 .166-.466 4.688 4.688 0 0 1 .541-.738 10.952 10.952 0 0 1 .884-.884 10.151 10.151 0 0 1 1.156-.892 11.065 11.065 0 0 1 1.366-.774 7.4 7.4 0 0 1 1.527-.541 3.746 3.746 0 0 1 1.555-.079 2.981 2.981 0 0 1 1.1.426 2.19 2.19 0 0 1 .667.667 1.971 1.971 0 0 1 .272.639 7.1 7.1 0 0 1 .032 1.677 11.12 11.12 0 0 1-.351 1.926 17.218 17.218 0 0 1-.7 2.044 18.231 18.231 0 0 1-1.022 2.04 16.121 16.121 0 0 1-1.329 1.919 12.87 12.87 0 0 1-1.571 1.662 10.177 10.177 0 0 1-1.792 1.279 7.407 7.407 0 0 1-1.977.773z" class="cls-3" transform="translate(-52.448 -49.073)"/>
                    <path id="Path_248" d="M60.611 55.835a.342.342 0 0 1 .126-.162.18.18 0 0 1 .15-.032.16.16 0 0 1 .1.114.411.411 0 0 1-.036.26 4.768 4.768 0 0 1-.225.5c-.122.26-.28.564-.478.916s-.41.726-.655 1.121a11.4 11.4 0 0 1-.766 1.109 6.947 6.947 0 0 1-.813.888 1.829 1.829 0 0 1-.789.462 1.167 1.167 0 0 1-.62-.059 1.4 1.4 0 0 1-.5-.343 1.663 1.663 0 0 1-.375-.809 2.935 2.935 0 0 1-.036-1.133 5.414 5.414 0 0 1 .312-1.164 7.139 7.139 0 0 1 .545-1.1 9.326 9.326 0 0 1 .639-.943 4.624 4.624 0 0 1 .631-.675 1.31 1.31 0 0 1 .505-.3.691.691 0 0 1 .272-.008.616.616 0 0 1 .316.134 1.122 1.122 0 0 1 .308.355 2.233 2.233 0 0 1 .253.671 1.291 1.291 0 0 1-.043.671 4.151 4.151 0 0 1-.332.793 8.735 8.735 0 0 1-1.089 1.555 5.587 5.587 0 0 1-.553.553 1.222 1.222 0 0 1-.41.253 1.681 1.681 0 0 0-.051.438.518.518 0 0 0 .091.268c.055.071.162.087.324.047a1.729 1.729 0 0 0 .738-.505 9.317 9.317 0 0 0 .9-1.062 13.544 13.544 0 0 0 .88-1.377 10.208 10.208 0 0 0 .681-1.436zm-2.048.15a.367.367 0 0 0-.182.154 2.408 2.408 0 0 0-.213.351c-.075.142-.146.3-.229.482s-.158.351-.233.529c-.174.438-.363.92-.556 1.452a5.316 5.316 0 0 0 .864-1.038 5.99 5.99 0 0 0 .517-.983 2.075 2.075 0 0 0 .174-.71c-.005-.182-.052-.261-.143-.237z" class="cls-3" transform="translate(-42.977 -46.88)"/>
                    <path id="Path_249" d="M58.167 64.33a.857.857 0 0 1-.568-.024 1.062 1.062 0 0 1-.4-.288 1.424 1.424 0 0 1-.257-.438 2.92 2.92 0 0 1-.146-.462 2.172 2.172 0 0 1 .016-.762c.051-.335.134-.73.245-1.172s.237-.931.391-1.456.3-1.058.462-1.6.316-1.074.466-1.6.28-1.01.391-1.456.189-.833.241-1.168a2.014 2.014 0 0 0 .024-.742c-.02-.087.032-.138.15-.158a.8.8 0 0 1 .43.079 1.6 1.6 0 0 1 .5.379 1.485 1.485 0 0 1 .351.714 2 2 0 0 1-.047.762c-.075.355-.178.774-.316 1.251s-.3 1.006-.474 1.571-.355 1.129-.529 1.689-.339 1.1-.493 1.618-.268.971-.347 1.366a3.5 3.5 0 0 0-.1.912c.012.221.091.316.233.28.087-.02.237-.178.446-.466s.438-.655.691-1.085.505-.9.758-1.409a13.263 13.263 0 0 0 .632-1.448.307.307 0 0 1 .122-.162.177.177 0 0 1 .15-.028.148.148 0 0 1 .091.118.423.423 0 0 1-.032.257c-.02.075-.091.241-.2.5s-.253.564-.422.912-.359.722-.564 1.121-.426.766-.643 1.105a7.525 7.525 0 0 1-.647.868 1.218 1.218 0 0 1-.605.422z" class="cls-3" transform="translate(-39.721 -51.179)"/>
                    <path id="Path_250" d="M61.778 57.633a.326.326 0 0 1 .126-.158.217.217 0 0 1 .154-.024.163.163 0 0 1 .1.114.411.411 0 0 1-.036.26c-.02.075-.091.237-.2.5s-.253.553-.414.9-.347.71-.545 1.1-.414.754-.631 1.089a6.145 6.145 0 0 1-.643.853 1.256 1.256 0 0 1-.592.418.978.978 0 0 1-.6-.032 1.2 1.2 0 0 1-.43-.328 1.792 1.792 0 0 1-.276-.5 2.417 2.417 0 0 1-.134-.521 2.1 2.1 0 0 1 .063-.8c.079-.316.174-.659.292-1.03s.229-.754.351-1.156a8.855 8.855 0 0 0 .272-1.188.609.609 0 0 0 0-.189 1.437 1.437 0 0 1 0-.182.355.355 0 0 1 .039-.142.237.237 0 0 1 .15-.087.573.573 0 0 1 .268.032.985.985 0 0 1 .324.205 1.441 1.441 0 0 1 .292.391 1.678 1.678 0 0 1 .178.6 1.852 1.852 0 0 1-.083.663c-.079.284-.17.588-.288.916s-.221.659-.339.991a6.961 6.961 0 0 0-.245.9 1.309 1.309 0 0 0 0 .612c.047.142.17.189.379.142.087-.02.233-.174.438-.454a12.228 12.228 0 0 0 .675-1.054c.241-.422.485-.884.73-1.385a12.717 12.717 0 0 0 .625-1.456zm-1.678-1.76a.441.441 0 0 1-.257-.036 1.045 1.045 0 0 1-.3-.213 1.675 1.675 0 0 1-.272-.4 1.623 1.623 0 0 1-.166-.572 1.579 1.579 0 0 1 0-.58 1.273 1.273 0 0 1 .158-.41.9.9 0 0 1 .225-.257.731.731 0 0 1 .241-.114.838.838 0 0 1 .3 0 2.135 2.135 0 0 1 .406.087 1.321 1.321 0 0 1 .359.174.393.393 0 0 1 .182.268.575.575 0 0 1-.02.276 1.954 1.954 0 0 1-.134.249c-.051.087-.114.193-.178.312a2.707 2.707 0 0 0-.182.454c-.059.182-.107.32-.134.418a1.254 1.254 0 0 1-.071.217.23.23 0 0 1-.067.091.326.326 0 0 1-.09.036z" class="cls-3" transform="translate(-37.155 -50.367)"/>
                    <path id="Path_251" d="M59.289 56.447c-.02-.071.043-.126.182-.162a1.02 1.02 0 0 1 .485.012 1.5 1.5 0 0 1 .549.276 1.039 1.039 0 0 1 .363.624 1.68 1.68 0 0 1-.028.718 8.066 8.066 0 0 1-.253.931c-.107.328-.225.659-.347.987s-.233.628-.316.884a3.217 3.217 0 0 0-.162.62c-.02.15.024.213.126.189s.26-.17.466-.434a10.808 10.808 0 0 0 .671-1.006c.241-.4.482-.856.73-1.358s.454-1 .639-1.492a9.86 9.86 0 0 0 .407-1.413 2.654 2.654 0 0 0 .032-1.105 1.628 1.628 0 0 0-.367-.754 1.824 1.824 0 0 0-.505-.4 1.906 1.906 0 0 0-.639-.193.06.06 0 0 1-.035.047.655.655 0 0 1-.2.071.4.4 0 0 1-.237 0 .146.146 0 0 1-.1-.111.173.173 0 0 1 .071-.146.706.706 0 0 1 .288-.126 2.132 2.132 0 0 1 .655.008 3.13 3.13 0 0 1 .951.276 3.178 3.178 0 0 1 .931.647 2.278 2.278 0 0 1 .6 1.121 2.145 2.145 0 0 1-.114 1.121 8.674 8.674 0 0 1-.612 1.373 15 15 0 0 1-.888 1.445c-.335.485-.651.924-.951 1.322s-.56.734-.781 1.006-.355.446-.4.513c-.059.1-.13.2-.2.312a.57.57 0 0 1-.363.221.711.711 0 0 1-.505-.051 1.319 1.319 0 0 1-.407-.328 2.26 2.26 0 0 1-.3-.47 2.652 2.652 0 0 1-.178-.489 1.525 1.525 0 0 1 0-.553c.036-.225.095-.478.166-.75s.154-.56.241-.86.162-.6.229-.9a5.79 5.79 0 0 0 .142-.864 2.654 2.654 0 0 0-.036-.759z" class="cls-3" transform="translate(-34.532 -50.937)"/>
                    <path id="Path_252" d="M64.877 54.837a.359.359 0 0 1 .123-.162.187.187 0 0 1 .15-.024c.051.008.083.047.1.111a.457.457 0 0 1-.028.26q-.041.112-.225.5c-.122.26-.284.564-.478.92s-.418.722-.659 1.121a12.451 12.451 0 0 1-.766 1.109 7.486 7.486 0 0 1-.817.884 1.807 1.807 0 0 1-.789.462 1.157 1.157 0 0 1-.616-.059 1.348 1.348 0 0 1-.5-.343A1.718 1.718 0 0 1 60 58.8a3 3 0 0 1-.036-1.129 5.17 5.17 0 0 1 .312-1.168 7.493 7.493 0 0 1 .541-1.1 9.022 9.022 0 0 1 .643-.939 4.472 4.472 0 0 1 .631-.679 1.3 1.3 0 0 1 .505-.3.789.789 0 0 1 .276-.008.715.715 0 0 1 .312.134 1.174 1.174 0 0 1 .308.355 2.291 2.291 0 0 1 .257.671 1.439 1.439 0 0 1-.047.671 4.419 4.419 0 0 1-.332.793 7.7 7.7 0 0 1-.509.817 8.447 8.447 0 0 1-.584.738 5.114 5.114 0 0 1-.549.549 1.1 1.1 0 0 1-.414.253 1.9 1.9 0 0 0-.047.442.5.5 0 0 0 .091.268c.059.071.162.087.324.051a1.832 1.832 0 0 0 .738-.505 9.323 9.323 0 0 0 .9-1.066 15.242 15.242 0 0 0 .884-1.373 10.279 10.279 0 0 0 .673-1.438zm-2.052.15c-.051.012-.107.067-.178.158a2.109 2.109 0 0 0-.213.351c-.071.142-.15.3-.229.478l-.237.537c-.174.434-.355.916-.553 1.448a5.433 5.433 0 0 0 .864-1.038 5.94 5.94 0 0 0 .513-.983 2.024 2.024 0 0 0 .174-.71c.001-.182-.042-.261-.141-.241z" class="cls-3" transform="translate(-30.399 -49.805)"/>
                    <path id="Path_253" d="M68.071 63.187c.032-.107.087-.146.162-.114a.253.253 0 0 1 .091.079 1.269 1.269 0 0 1-.217.505 1.717 1.717 0 0 1-.418.407 2.176 2.176 0 0 1-.738.3 2.6 2.6 0 0 1-1.038.012 3.019 3.019 0 0 1-1.1-.418 3.463 3.463 0 0 1-.967-.916 3.908 3.908 0 0 1-.631-1.456 4.8 4.8 0 0 1-.126-1.31 9.1 9.1 0 0 1 .142-1.322 9.854 9.854 0 0 1 .28-1.2c.111-.367.213-.679.3-.924a4.96 4.96 0 0 1-.635.4 3.638 3.638 0 0 1-.916.335.891.891 0 0 1-.3.02.684.684 0 0 1-.347-.138 1.286 1.286 0 0 1-.347-.4 2.688 2.688 0 0 1-.276-.766 3.629 3.629 0 0 1-.071-1.342 4.092 4.092 0 0 1 .343-1.145 3.036 3.036 0 0 1 .584-.833 1.4 1.4 0 0 1 .643-.4.867.867 0 0 1 .616.067.735.735 0 0 1 .375.517 1.481 1.481 0 0 1 .024.43 4.067 4.067 0 0 1-.075.537c-.043.2-.087.391-.146.6s-.118.4-.186.588q-.231.681-.533 1.433c.26-.221.5-.426.722-.62l.549-.466c.174-.154.288-.253.343-.308s.134-.134.2-.205a.247.247 0 0 1 .288-.024l.3.158a1.887 1.887 0 0 1 .407.284 1.106 1.106 0 0 1 .288.391.57.57 0 0 1-.055.5c-.1.193-.233.482-.4.872a10.283 10.283 0 0 0-.442 1.33 9.313 9.313 0 0 0-.272 1.571 4.951 4.951 0 0 0 .1 1.606 3.67 3.67 0 0 0 .489 1.231 2.388 2.388 0 0 0 .647.679 1.539 1.539 0 0 0 .691.26 1.715 1.715 0 0 0 .612-.024 1.524 1.524 0 0 0 .758-.355 1.152 1.152 0 0 0 .282-.426zm-6.181-7.163a.977.977 0 0 0 .095.276.779.779 0 0 0 .122.178.985.985 0 0 0 .146.142c.1-.359.2-.7.3-1.026s.178-.612.233-.86a3.173 3.173 0 0 0 .087-.58c0-.138-.051-.193-.154-.17a.588.588 0 0 0-.32.276 2.972 2.972 0 0 0-.3.56 3.478 3.478 0 0 0-.2.655 1.309 1.309 0 0 0-.009.549z" class="cls-3" transform="translate(-27.57 -52.539)"/>
                    <path id="Path_254" d="M69.9 54.107a.322.322 0 0 1 .118-.162.181.181 0 0 1 .15-.028.156.156 0 0 1 .1.114.411.411 0 0 1-.036.26 4.225 4.225 0 0 1-.2.45c-.107.225-.241.493-.407.809s-.347.655-.549 1.014-.41.71-.628 1.038a10.357 10.357 0 0 1-.647.9 2.681 2.681 0 0 1-.6.58l-.02.059-.095.26a18.6 18.6 0 0 1-.845 1.926 14.263 14.263 0 0 1-1.022 1.7 8.027 8.027 0 0 1-1.01 1.267 2.448 2.448 0 0 1-1.208.671 1.1 1.1 0 0 1-.778-.126 1.31 1.31 0 0 1-.359-.308 1.424 1.424 0 0 1-.26-.485.5.5 0 0 1 .091-.375 3.441 3.441 0 0 1 .383-.521 7.851 7.851 0 0 1 .572-.612c.217-.217.442-.426.683-.631.549-.489 1.188-1.01 1.91-1.567a2.561 2.561 0 0 0 .17-.379q.095-.237.189-.509a.728.728 0 0 1-.3.2 1.212 1.212 0 0 1-.4.016 1.166 1.166 0 0 1-.426-.146 1.569 1.569 0 0 1-.391-.328 1.7 1.7 0 0 1-.3-.537 1.332 1.332 0 0 1-.016-.588c.039-.253.095-.529.162-.833s.154-.635.249-.979.17-.675.233-1a7.124 7.124 0 0 0 .138-.9 1.743 1.743 0 0 0-.055-.7c-.024-.071.016-.111.118-.111a.844.844 0 0 1 .383.1 1.656 1.656 0 0 1 .454.335 1.324 1.324 0 0 1 .363 1.255c-.047.3-.111.616-.2.967s-.182.71-.28 1.066-.178.687-.241.975a3.931 3.931 0 0 0-.083.695c0 .17.067.241.2.209s.284-.174.45-.43a5.77 5.77 0 0 0 .489-.955 13.406 13.406 0 0 0 .446-1.267c.138-.466.257-.924.347-1.373a8.53 8.53 0 0 0 .17-1.247 2.7 2.7 0 0 0-.075-.912c-.02-.051.016-.075.114-.059a.935.935 0 0 1 .343.162 2.152 2.152 0 0 1 .407.371 1.718 1.718 0 0 1 .324.572 2.271 2.271 0 0 1 .055.647 7.164 7.164 0 0 1-.1.947c-.067.359-.158.758-.268 1.2s-.241.9-.395 1.385c.158-.178.339-.422.556-.726s.434-.643.655-1.022.442-.762.647-1.164a11.971 11.971 0 0 0 .525-1.17zm-7.459 10.187a1.25 1.25 0 0 0 .446-.225 3.289 3.289 0 0 0 .446-.41 5.571 5.571 0 0 0 .418-.533c.142-.2.272-.391.395-.588a15.217 15.217 0 0 0 .821-1.547c-.588.5-1.109.951-1.567 1.37-.193.178-.383.359-.568.537s-.347.339-.482.493a4.119 4.119 0 0 0-.32.407c-.079.118-.107.2-.087.249a.394.394 0 0 0 .193.225.494.494 0 0 0 .305.022z" class="cls-3" transform="translate(-25.464 -51.491)"/>
                </g>
                <path id="Path_255" d="M84.488 55.4s-2.514.264-7.1.493a53.427 53.427 0 0 0-18.66 4.918c-3.288 1.413-3.927.6-3.927.6s.809 1.8 5.072.039 10.627-4.768 17.652-5.076c6.082-.474 6.888-.343 6.963-.974z" class="cls-3" transform="translate(-38.536 -39.367)"/>
            </g>
        </g>
        <g id="Group_4" transform="translate(53.395 54.288)">
            <path id="Path_4" d="M1187.564 543.23h-30.224a1.342 1.342 0 0 1-.12-2.678c.04 0 .08 0 .12-.006h30.234c.148 0 .295.008.442.023a4.412 4.412 0 0 1 3.909 5.095 5.325 5.325 0 0 1-.237.9 6.593 6.593 0 0 1-5.537 4.389c-.229.024-.458.035-.688.036h-9.6c-.247.926-.493 1.852-.746 2.777-.065.229-.14.456-.228.677a6.817 6.817 0 0 1-5.909 4.294 5.529 5.529 0 0 1-.828 0 4.567 4.567 0 0 1-4.121-5.213 4.824 4.824 0 0 1 .106-.513l.992-3.7.021-.073c.007-.024.011-.034.021-.059v-.016a1.191 1.191 0 0 1 .049-.111l.017-.032v-.006l.007-.013v-.011l.005-.008v-.012l.005-.008v-.006a1.343 1.343 0 0 1 .6-.518h.006a1.332 1.332 0 0 1 .188-.066l.082-.019h.035a1.067 1.067 0 0 1 .114-.015h.113c2.745 0 15.577.019 19.076 0 .137 0 .274-.01.41-.026a3.917 3.917 0 0 0 2.837-1.766 3.936 3.936 0 0 0 .486-1.092v.008l.013-.049a1.769 1.769 0 0 0 .042-.615 1.729 1.729 0 0 0-1.519-1.526 1.973 1.973 0 0 0-.2-.012zm-14.484 7.761h-5.629c-.246.911-.493 1.821-.73 2.734a1.907 1.907 0 0 0-.046.669 1.882 1.882 0 0 0 1.734 1.669 2.854 2.854 0 0 0 .356 0 4.135 4.135 0 0 0 3.656-2.685c.046-.124.085-.25.12-.377l.538-2.009zm-3.48-18.205l.026-.07a11.807 11.807 0 0 1 9.893-7.632c.371-.037.743-.055 1.115-.058 3.791-.01 7.583-.027 11.373 0a4.679 4.679 0 0 1 .509.037 4.412 4.412 0 0 1 3.772 5.143 5.571 5.571 0 0 1-.249.905 6.6 6.6 0 0 1-5.515 4.323c-.229.024-.458.035-.688.036h-30.525a1.362 1.362 0 0 1-.24-.022 1.342 1.342 0 0 1 .119-2.657c.04 0 .08 0 .12-.006zm2.95 0H1189.999c.136-.006.272-.019.407-.038a3.909 3.909 0 0 0 3.2-2.842v.008l.012-.049a1.754 1.754 0 0 0 .042-.615 1.728 1.728 0 0 0-1.066-1.409 1.757 1.757 0 0 0-.627-.128q-5.684-.041-11.369 0c-.288 0-.576.02-.862.05a9.133 9.133 0 0 0-6.91 4.448q-.166.283-.312.576z" class="cls-10" transform="translate(-1155.998 -525.01)"/>
            <path id="Path_5" d="M1266.193 691.327l-.356 1.338h-2.781l.358-1.338z" class="cls-10" transform="translate(-1246.333 -665.347)"/>
        </g>
    </g>
</svg>
