<svg xmlns="http://www.w3.org/2000/svg" width="92.107" height="95.992" viewBox="0 0 92.107 95.992">
  <g id="discount_2_" data-name="discount (2)" transform="translate(-10.359 0.002)">
    <g id="Group_37335" data-name="Group 37335" transform="translate(10.359 -0.002)">
      <g id="Group_37334" data-name="Group 37334" transform="translate(0 0)">
        <path id="Path_39233" data-name="Path 39233" d="M98.025,49.237a2.813,2.813,0,0,1,0-2.487l3.58-7.324a8.333,8.333,0,0,0-3.6-11.066l-7.2-3.821a2.813,2.813,0,0,1-1.462-2.011L87.939,14.5A8.333,8.333,0,0,0,78.526,7.66L70.454,8.8a2.813,2.813,0,0,1-2.365-.768L62.23,2.365a8.333,8.333,0,0,0-11.635,0L44.736,8.034a2.814,2.814,0,0,1-2.365.768L34.3,7.66A8.332,8.332,0,0,0,24.886,14.5l-1.408,8.029a2.814,2.814,0,0,1-1.461,2.012l-7.2,3.821a8.333,8.333,0,0,0-3.6,11.066l3.58,7.324a2.813,2.813,0,0,1,0,2.487l-3.58,7.324a8.333,8.333,0,0,0,3.6,11.066l7.2,3.821a2.813,2.813,0,0,1,1.462,2.011l1.408,8.03A8.328,8.328,0,0,0,33.1,88.413a8.562,8.562,0,0,0,1.2-.085l8.072-1.142a2.812,2.812,0,0,1,2.365.768L50.6,93.623a8.333,8.333,0,0,0,11.635,0l5.859-5.668a2.816,2.816,0,0,1,2.365-.768l8.072,1.142a8.332,8.332,0,0,0,9.413-6.839l1.409-8.029a2.814,2.814,0,0,1,1.461-2.012l7.2-3.821a8.333,8.333,0,0,0,3.6-11.066Zm-2.61,13.5-7.2,3.821a8.314,8.314,0,0,0-4.32,5.946l-1.408,8.029A2.819,2.819,0,0,1,79.3,82.846L71.23,81.7a8.312,8.312,0,0,0-6.99,2.271l-5.859,5.668a2.82,2.82,0,0,1-3.937,0l-5.859-5.668a8.306,8.306,0,0,0-5.8-2.355A8.5,8.5,0,0,0,41.6,81.7l-8.072,1.142a2.82,2.82,0,0,1-3.185-2.314L28.931,72.5a8.313,8.313,0,0,0-4.32-5.945l-7.2-3.821a2.819,2.819,0,0,1-1.217-3.744l3.58-7.324a8.314,8.314,0,0,0,0-7.349L16.193,37a2.819,2.819,0,0,1,1.217-3.744l7.2-3.821a8.314,8.314,0,0,0,4.32-5.946l1.408-8.029a2.819,2.819,0,0,1,3.185-2.314L41.6,14.284a8.314,8.314,0,0,0,6.99-2.271l5.859-5.668a2.82,2.82,0,0,1,3.937,0l5.859,5.668a8.313,8.313,0,0,0,6.99,2.271L79.3,13.142a2.82,2.82,0,0,1,3.185,2.314l1.408,8.03a8.313,8.313,0,0,0,4.32,5.945l7.2,3.821A2.819,2.819,0,0,1,96.631,37l-3.58,7.324a8.314,8.314,0,0,0,0,7.349l3.58,7.324A2.82,2.82,0,0,1,95.415,62.737Z" transform="translate(-10.359 0.002)" fill="#c8c9d1"/>
      </g>
    </g>
    <g id="Group_37337" data-name="Group 37337" transform="translate(35.375 26.957)">
      <g id="Group_37336" data-name="Group 37336">
        <path id="Path_39234" data-name="Path 39234" d="M185.055,144.6a2.768,2.768,0,0,0-3.915,0L144.6,181.141a2.768,2.768,0,1,0,3.915,3.915l36.538-36.538A2.768,2.768,0,0,0,185.055,144.6Z" transform="translate(-143.792 -143.792)" fill="#c8c9d1"/>
      </g>
    </g>
    <g id="Group_37339" data-name="Group 37339" transform="translate(35.19 23.081)">
      <g id="Group_37338" data-name="Group 37338">
        <path id="Path_39235" data-name="Path 39235" d="M152.952,123.116a10.15,10.15,0,1,0,10.15,10.15A10.162,10.162,0,0,0,152.952,123.116Zm0,14.764a4.614,4.614,0,1,1,4.614-4.614A4.619,4.619,0,0,1,152.952,137.88Z" transform="translate(-142.802 -123.116)" fill="#c8c9d1"/>
      </g>
    </g>
    <g id="Group_37341" data-name="Group 37341" transform="translate(57.335 52.608)">
      <g id="Group_37340" data-name="Group 37340">
        <path id="Path_39236" data-name="Path 39236" d="M271.072,280.61a10.15,10.15,0,1,0,10.15,10.15A10.162,10.162,0,0,0,271.072,280.61Zm0,14.764a4.614,4.614,0,1,1,4.614-4.614A4.619,4.619,0,0,1,271.072,295.374Z" transform="translate(-260.922 -280.61)" fill="#c8c9d1"/>
      </g>
    </g>
  </g>
</svg>
