<svg id="toilets" xmlns="http://www.w3.org/2000/svg" width="23.387" height="23.387" viewBox="0 0 23.387 23.387">
  <path id="Path_39150" data-name="Path 39150" d="M4.955,23.387H3.724A2.035,2.035,0,0,1,1.645,21.4,9.025,9.025,0,0,0,.207,16.109.914.914,0,0,1,0,15.53V11.677A4.054,4.054,0,0,1,4.049,7.628H4.63a4.054,4.054,0,0,1,4.049,4.049V15.53a.881.881,0,0,1-.2.576,9.039,9.039,0,0,0-1.441,5.3,2.035,2.035,0,0,1-2.078,1.983ZM1.827,15.238A11.166,11.166,0,0,1,3.473,21.4c0,.06.115.156.251.156H4.955c.136,0,.251-.1.251-.156a11.166,11.166,0,0,1,1.645-6.166V11.677A2.224,2.224,0,0,0,4.63,9.455H4.049a2.224,2.224,0,0,0-2.222,2.222Zm5.938.292h0ZM4.294,6.212A3.106,3.106,0,1,1,7.4,3.106,3.11,3.11,0,0,1,4.294,6.212Zm0-4.385A1.279,1.279,0,1,0,5.573,3.106,1.28,1.28,0,0,0,4.294,1.827Zm15.141,21.56H18.2A2.035,2.035,0,0,1,16.125,21.4c0-.6-.953-1.563-1.463-1.945a.913.913,0,0,1-.358-.852l1-7.537,0-.022a3.655,3.655,0,0,1,3.537-3.42,3.446,3.446,0,0,1,2.364.956,3.981,3.981,0,0,1,1.207,2.5l.958,7.53a.913.913,0,0,1-.379.861c-.6.427-1.488,1.337-1.488,1.93a2.035,2.035,0,0,1-2.078,1.983ZM16.183,18.35a8.244,8.244,0,0,1,.62.614,3.756,3.756,0,0,1,1.15,2.44c0,.06.115.156.251.156h1.231c.136,0,.251-.1.251-.156A4.567,4.567,0,0,1,21.5,18.33l-.894-7.024,0-.014A1.886,1.886,0,0,0,18.85,9.456c-.9,0-1.543.7-1.731,1.868ZM18.773,6.212a3.106,3.106,0,1,1,3.106-3.106A3.11,3.11,0,0,1,18.773,6.212Zm0-4.385a1.279,1.279,0,1,0,1.279,1.279A1.28,1.28,0,0,0,18.773,1.827Z" transform="translate(0 0)" fill="#444251"/>
  <path id="Path_39151" data-name="Path 39151" d="M235.914,23.387a.914.914,0,0,1-.914-.914V.914a.914.914,0,1,1,1.827,0v21.56A.914.914,0,0,1,235.914,23.387Z" transform="translate(-224.266)" fill="#444251"/>
</svg>
